<svg width="800" height="59" xmlns="http://www.w3.org/2000/svg">
 <!-- Created with Method Draw - http://github.com/duopixel/Method-Draw/ -->

 <g>
  <title>background</title>
  <rect fill="none" id="canvas_background" height="59" width="800" y="-1" x="-1"/>
  <g display="none" overflow="visible" y="0" x="0" height="100%" width="100%" id="canvasGrid">
   <rect fill="url(#gridpattern)" stroke-width="0" y="0" x="0" height="100%" width="100%"/>
  </g>
 </g>
 <g>
  <title>Layer 1</title>
  <text style="cursor: move;" xml:space="preserve" text-anchor="start" font-family="Helvetica, Arial, sans-serif" font-size="24" id="svg_5" y="37.5" x="16.5" stroke-width="0" stroke="#000" fill="#ffffff">Dashboard</text>
  <text style="cursor: move;" xml:space="preserve" text-anchor="start" font-family="Helvetica, Arial, sans-serif" font-size="24" id="svg_8" y="37.5" x="225.5" stroke-width="0" stroke="#000" fill="#ffffff">Projects</text>
  <text style="cursor: move;" xml:space="preserve" text-anchor="start" font-family="Helvetica, Arial, sans-serif" font-size="24" id="svg_9" y="37.5" x="418.5" stroke-width="0" stroke="#000" fill="#ffffff">Inventory</text>
  <text style="cursor: move;" xml:space="preserve" text-anchor="start" font-family="Helvetica, Arial, sans-serif" font-size="24" id="svg_10" y="37.5" x="626.5" stroke-width="0" stroke="#000" fill="#ffffff">Settings</text>
  <g id="svg_35">
   <g transform="matrix(0.116178, 0, 0, 0.116178, -543.789, -31.3184)" id="svg_15">
    <g id="svg_16">
     <path id="svg_17" fill="#FFFFFF" d="m11171.447266,548.12085c8.461914,-5.287048 16.125977,-11.735046 22.767578,-19.127014l23.941406,13.825989l21.799805,-37.759979l-23.893555,-13.795959c3.038086,-9.275024 4.825195,-19.113037 5.160156,-29.311035l27.182617,-4.792969l-7.574219,-42.937988l-27.177734,4.792969c-3.755859,-9.309021 -8.794922,-17.965027 -14.90625,-25.744019l17.766602,-21.169983l-33.400391,-28.023987l-17.750977,21.151978c-8.669922,-4.645996 -18.058594,-8.119019 -27.954102,-10.203003l0,-27.585999l-43.599609,0l0,27.585999c-9.896484,2.083984 -19.285156,5.557007 -27.956055,10.203003l-17.75,-21.151978l-33.400391,28.024963l17.764648,21.170044c-6.110352,7.778992 -11.149414,16.435974 -14.905273,25.743958l-27.177734,-4.792969l-7.570313,42.937988l27.178711,4.79303c0.334961,10.198975 2.123047,20.034973 5.161133,29.312988l-23.895508,13.794983l21.800781,37.759003l23.943359,-13.822021c6.638672,7.389038 14.302734,13.838013 22.765625,19.125l-9.451172,25.963013l40.97168,14.910034l9.438477,-25.92804c4.864258,0.687988 9.831055,1.052979 14.881836,1.052979c5.050781,0 10.019531,-0.362976 14.882813,-1.052979l9.4375,25.929993l40.969727,-14.914001l-9.451172,-25.963989zm-55.84082,-34.001038c-30.702148,0 -55.679688,-24.976959 -55.679688,-55.679962c0,-30.700989 24.977539,-55.679993 55.679688,-55.679993s55.679688,24.979004 55.679688,55.679993c0,30.703003 -24.976563,55.679962 -55.679688,55.679962z"/>
     <path id="svg_18" fill="#FFFFFF" d="m11358.854492,580.861877l-18.794922,6.079956c-3.583984,-6.229004 -8.013672,-11.869019 -13.115234,-16.778992l10.503906,-16.763977l-26.447266,-16.570007l-10.49707,16.75c-6.604492,-2.437988 -13.602539,-3.973022 -20.826172,-4.471008l-2.725586,-19.559021l-30.912109,4.309021l2.725586,19.559021c-6.80957,2.452942 -13.125,5.846985 -18.8125,9.995972l-14.671875,-13.243958l-20.912109,23.167969l14.68457,13.259033c-3.5625,6.11792 -6.277344,12.751953 -8.020508,19.725952l-19.744141,-0.713989l-1.128906,31.187988l19.743164,0.716003c1.246094,7.197998 3.486328,13.991028 6.558594,20.270996l-15.578125,12.143005l19.18457,24.61499l15.609375,-12.164001c5.4375,4.58197 11.510742,8.396057 18.030273,11.310974l-4.137695,19.344055l30.522461,6.519958l4.132813,-19.313965c3.515625,0.01001 7.072266,-0.229004 10.652344,-0.727051c3.582031,-0.497925 7.069336,-1.25 10.446289,-2.214966l9.255859,17.45105l27.574219,-14.623047l-9.265625,-17.471008c5.479492,-4.585999 10.270508,-9.91803 14.251953,-15.811951l18.337891,7.435974l11.726563,-28.924011l-18.302734,-7.421997c1.234375,-6.875 1.529297,-14.026978 0.763672,-21.292969l18.799805,-6.084045l-9.611328,-29.691956zm-78.912109,83.198975c-21.770508,3.031006 -41.949219,-12.208984 -44.979492,-33.97699c-3.037109,-21.768982 12.207031,-41.949036 33.976563,-44.979004c21.767578,-3.036011 41.941406,12.20697 44.980469,33.977966c3.02832,21.767029 -12.209961,41.94104 -33.977539,44.978027z"/>
     <path id="svg_19" fill="#FFFFFF" d="m11400.959961,472.701874l0.731445,-24.629028l-15.585938,-0.462952c-0.976563,-5.42804 -2.722656,-10.80304 -5.285156,-15.971008l12.240234,-9.670044l-15.271484,-19.329956l-12.237305,9.666016c-4.365234,-3.627014 -9.193359,-6.584045 -14.318359,-8.81604l3.164063,-15.291016l-24.123047,-4.995972l-3.169922,15.281006c-5.558594,0.007996 -11.15625,0.796997 -16.640625,2.411987l-7.391602,-13.72699l-21.694336,11.68396l7.390625,13.729065c-4.363281,3.685974 -8.107422,7.93396 -11.175781,12.565979l-14.496094,-5.77002l-9.111328,22.893005l14.507813,5.778992c-0.955078,5.507996 -1.140625,11.15802 -0.513672,16.799011l-14.808594,4.89801l7.731445,23.394958l14.80957,-4.895996c2.899414,4.986023 6.425781,9.395996 10.425781,13.20105l-8.191406,13.267914l20.962891,12.946045l8.208984,-13.291992c5.285156,1.895996 10.828125,3.050964 16.453125,3.414001l2.251953,15.453003l24.382813,-3.561035l-2.245117,-15.434021c2.601563,-0.95697 5.169922,-2.108948 7.683594,-3.462921c2.515625,-1.35199 4.890625,-2.867004 7.123047,-4.51001l11.647461,10.371002l16.387695,-18.398041l-11.65625,-10.382935c2.794922,-4.900024 4.875,-10.164063 6.203125,-15.619019l15.610352,0.463989zm-58.710938,13.197021c-15.280273,8.22699 -34.40332,2.491943 -42.626953,-12.78302c-8.229492,-15.277039 -2.493164,-34.403992 12.787109,-42.627014c15.273438,-8.229004 34.395508,-2.48999 42.625,12.786987c8.222656,15.278015 2.490234,34.39502 -12.785156,42.623047z"/>
    </g>
   </g>
   <g transform="matrix(0.116178, 0, 0, 0.116178, -543.789, -31.3184)" id="svg_20"/>
   <g transform="matrix(0.116178, 0, 0, 0.116178, -543.789, -31.3184)" id="svg_21"/>
   <g transform="matrix(0.116178, 0, 0, 0.116178, -543.789, -31.3184)" id="svg_22"/>
   <g transform="matrix(0.116178, 0, 0, 0.116178, -543.789, -31.3184)" id="svg_23"/>
   <g transform="matrix(0.116178, 0, 0, 0.116178, -543.789, -31.3184)" id="svg_24"/>
   <g transform="matrix(0.116178, 0, 0, 0.116178, -543.789, -31.3184)" id="svg_25"/>
   <g transform="matrix(0.116178, 0, 0, 0.116178, -543.789, -31.3184)" id="svg_26"/>
   <g transform="matrix(0.116178, 0, 0, 0.116178, -543.789, -31.3184)" id="svg_27"/>
   <g transform="matrix(0.116178, 0, 0, 0.116178, -543.789, -31.3184)" id="svg_28"/>
   <g transform="matrix(0.116178, 0, 0, 0.116178, -543.789, -31.3184)" id="svg_29"/>
   <g transform="matrix(0.116178, 0, 0, 0.116178, -543.789, -31.3184)" id="svg_30"/>
   <g transform="matrix(0.116178, 0, 0, 0.116178, -543.789, -31.3184)" id="svg_31"/>
   <g transform="matrix(0.116178, 0, 0, 0.116178, -543.789, -31.3184)" id="svg_32"/>
   <g transform="matrix(0.116178, 0, 0, 0.116178, -543.789, -31.3184)" id="svg_33"/>
   <g transform="matrix(0.116178, 0, 0, 0.116178, -543.789, -31.3184)" id="svg_34"/>
  </g>
  <g id="svg_86">
   <g transform="matrix(0.511447, 0, 0, 0.511447, -562.26, -28.3101)" id="svg_63">
    <g id="svg_64">
     <polygon id="svg_65" fill="#FFFFFF" points="1436.480712890625,159.93413996696472 1444.434814453125,143.23212885856628 1428.8369140625,143.25513911247253 "/>
     <path id="svg_66" fill="#FFFFFF" d="m1391.901855,66.132141l0,73.19899l89.468018,0l0,-73.19899l-89.468018,0zm83.657959,67.391006l-77.8479,0l0,-61.581009l77.8479,0l0,61.581009z"/>
     <path id="svg_67" fill="#FFFFFF" d="m1417.341797,100.517136l-10.449951,10.874008l0,18.348999c0,0.516006 0.418945,0.935989 0.936035,0.935989l12.687988,0c0.516846,0 0.936035,-0.418991 0.936035,-0.935989l0,-28.147003l-2.926025,-1.076004l-1.184082,0z"/>
     <path id="svg_68" fill="#FFFFFF" d="m1443.184814,109.045135l-12.687012,0c-0.518066,0 -0.937012,0.419006 -0.937012,0.936005l0,19.757996c0,0.517014 0.418945,0.936996 0.937012,0.936996l12.687012,0c0.51709,0 0.936035,-0.418991 0.936035,-0.936996l0,-19.758987c0,-0.516006 -0.418945,-0.935013 -0.936035,-0.935013z"/>
     <path id="svg_69" fill="#FFFFFF" d="m1461.626709,88.917145l-2.304932,-1.926003l-8.338867,9.097l0,33.651009c0,0.515991 0.418945,0.935989 0.937012,0.935989l12.687988,0c0.516846,0 0.935791,-0.418991 0.935791,-0.935989l0,-40.512009c-0.052002,0.029999 -0.098877,0.067001 -0.151855,0.093994c-0.485107,0.254005 -1.030029,0.388 -1.578125,0.388c-0.801025,0.001007 -1.574951,-0.279999 -2.187012,-0.791992z"/>
     <path id="svg_70" fill="#FFFFFF" d="m1403.791748,109.989136c0.490967,0 0.981934,-0.192993 1.350098,-0.574997l11.942871,-12.427994l20.896973,7.688995c0.714111,0.261002 1.512207,0.068008 2.0271,-0.492004l19.24292,-20.990997l4.502197,3.764c0.220947,0.183998 0.527832,0.216003 0.781982,0.084c0.25293,-0.132996 0.402832,-0.403999 0.376953,-0.691002l-0.976074,-10.911995c-0.033936,-0.389999 -0.378906,-0.677002 -0.768066,-0.641998l-10.912842,0.973999c-0.285156,0.025002 -0.5271,0.221001 -0.613037,0.493996c-0.0271,0.090004 -0.036133,0.183006 -0.028076,0.274002c0.01709,0.183998 0.104004,0.358002 0.250977,0.480003l4.511963,3.770996l-18.278809,19.939995l-20.865967,-7.677994c-0.699219,-0.254997 -1.481201,-0.074997 -1.99707,0.459l-12.792969,13.311005c-0.716064,0.746002 -0.693115,1.929993 0.052979,2.645996c0.362061,0.348999 0.828857,0.522995 1.295898,0.522995z"/>
    </g>
   </g>
   <g transform="matrix(0.511447, 0, 0, 0.511447, -562.26, -28.3101)" id="svg_71"/>
   <g transform="matrix(0.511447, 0, 0, 0.511447, -562.26, -28.3101)" id="svg_72"/>
   <g transform="matrix(0.511447, 0, 0, 0.511447, -562.26, -28.3101)" id="svg_73"/>
   <g transform="matrix(0.511447, 0, 0, 0.511447, -562.26, -28.3101)" id="svg_74"/>
   <g transform="matrix(0.511447, 0, 0, 0.511447, -562.26, -28.3101)" id="svg_75"/>
   <g transform="matrix(0.511447, 0, 0, 0.511447, -562.26, -28.3101)" id="svg_76"/>
   <g transform="matrix(0.511447, 0, 0, 0.511447, -562.26, -28.3101)" id="svg_77"/>
   <g transform="matrix(0.511447, 0, 0, 0.511447, -562.26, -28.3101)" id="svg_78"/>
   <g transform="matrix(0.511447, 0, 0, 0.511447, -562.26, -28.3101)" id="svg_79"/>
   <g transform="matrix(0.511447, 0, 0, 0.511447, -562.26, -28.3101)" id="svg_80"/>
   <g transform="matrix(0.511447, 0, 0, 0.511447, -562.26, -28.3101)" id="svg_81"/>
   <g transform="matrix(0.511447, 0, 0, 0.511447, -562.26, -28.3101)" id="svg_82"/>
   <g transform="matrix(0.511447, 0, 0, 0.511447, -562.26, -28.3101)" id="svg_83"/>
   <g transform="matrix(0.511447, 0, 0, 0.511447, -562.26, -28.3101)" id="svg_84"/>
   <g transform="matrix(0.511447, 0, 0, 0.511447, -562.26, -28.3101)" id="svg_85"/>
  </g>
  <g id="svg_113">
   <g transform="matrix(0.0862131, 0, 0, 0.0862131, -535.69, -28.457)" id="svg_93">
    <g id="svg_91">
     <polygon id="svg_94" fill="#FFFFFF" points="10465.08203125,713.6076240539551 10428.6484375,770.0926094055176 10404.5234375,760.3586006164551 10320.44921875,913.7116279602051 10419.2197265625,913.7116279602051 10462.5,856.3366279602051 10499.66015625,856.3366279602051 10539.4208984375,913.7116279602051 10572.8994140625,913.7116279602051 10496.2646484375,722.0606269836426 "/>
     <polygon id="svg_95" fill="#FFFFFF" points="10494.658203125,865.8996162414551 10467.271484375,865.8996162414551 10431.2021484375,913.7116279602051 10527.79296875,913.7116279602051 "/>
     <path id="svg_96" fill="#FFFFFF" d="m10069.96875,821.92157l-28.410156,91.789917l39.445313,0l31.555664,-91.417908l9.008789,-71.14502l30.054688,0l27.042969,73.72699l-16.524414,88.835938l38.279297,0l18.819336,-100.615906l-18.819336,-53.033997l-6.836914,-23.992004l103.561523,58.675964l-19.430664,33.736023l45.125,26l47.735352,-82.857971l-45.125,-26.001038l-18.751953,32.550964l-120.583008,-68.314941l-6.501953,-22.834961l11.829102,-47.91803l5.09668,43.796997l8.185547,21.257019l32.302734,18.885986l-13.397461,-47.602051l-10.355469,-91.455933l-33.469727,-1.377014l-5.880859,-16.179993c22.423828,-4.581055 39.301758,-23.906006 40.544922,-47.373047l-100.75,-13.358978c-0.735352,3.442017 -1.157227,7.009003 -1.157227,10.672028c0,17.680969 8.989258,33.257996 22.644531,42.428955l-0.888672,-0.096008l-20.166992,16.954041l-25.838867,-2.169983l-56.726563,49.59198l0,75.47699l45.058594,11.130981l-6.674805,112.234009zm-9.695313,-150.781006l0,-22.53894l19.125,-17.471008l0,44.312988l-19.125,-4.30304z"/>
     <path id="svg_97" fill="#FFFFFF" d="m10214.02832,509.352631l15.30957,2.026978c2.037109,-45.507996 -17.738281,-75.286011 -53.541016,-80.028992c-2.935547,-0.392029 -5.842773,-0.583008 -8.720703,-0.583008c-31.708984,0 -54.78418,23.208008 -63.820313,63.895996l13.339844,1.768982l97.432617,12.920044z"/>
    </g>
   </g>
   <g transform="matrix(0.0862131, 0, 0, 0.0862131, -535.69, -28.457)" id="svg_98"/>
   <g transform="matrix(0.0862131, 0, 0, 0.0862131, -535.69, -28.457)" id="svg_99"/>
   <g transform="matrix(0.0862131, 0, 0, 0.0862131, -535.69, -28.457)" id="svg_100"/>
   <g transform="matrix(0.0862131, 0, 0, 0.0862131, -535.69, -28.457)" id="svg_101"/>
   <g transform="matrix(0.0862131, 0, 0, 0.0862131, -535.69, -28.457)" id="svg_102"/>
   <g transform="matrix(0.0862131, 0, 0, 0.0862131, -535.69, -28.457)" id="svg_103"/>
   <g transform="matrix(0.0862131, 0, 0, 0.0862131, -535.69, -28.457)" id="svg_104"/>
   <g transform="matrix(0.0862131, 0, 0, 0.0862131, -535.69, -28.457)" id="svg_105"/>
   <g transform="matrix(0.0862131, 0, 0, 0.0862131, -535.69, -28.457)" id="svg_106"/>
   <g transform="matrix(0.0862131, 0, 0, 0.0862131, -535.69, -28.457)" id="svg_107"/>
   <g transform="matrix(0.0862131, 0, 0, 0.0862131, -535.69, -28.457)" id="svg_108"/>
   <g transform="matrix(0.0862131, 0, 0, 0.0862131, -535.69, -28.457)" id="svg_109"/>
   <g transform="matrix(0.0862131, 0, 0, 0.0862131, -535.69, -28.457)" id="svg_110"/>
   <g transform="matrix(0.0862131, 0, 0, 0.0862131, -535.69, -28.457)" id="svg_111"/>
   <g transform="matrix(0.0862131, 0, 0, 0.0862131, -535.69, -28.457)" id="svg_112"/>
  </g>
  <g id="svg_136">
   <g transform="matrix(0.115466, 0, 0, 0.115466, -595.126, -31.6624)" id="svg_120">
    <path fill="#FFFFFF" d="m10172.509766,484.04892l-128.65332,-78.357971l81.132813,-67.164001l128.732422,79.21698l-81.211914,66.304993zm-48.378906,148.112091l123.546875,-72.331055l-74.310547,-62.858002l-120.960938,73.19101l71.724609,61.998047zm-99.204102,-61.998047l-120.972656,-73.19101l-74.295898,62.858002l123.55957,72.331055l71.708984,-61.998047zm-114.921875,51.665039l0,23.250977l123.47168,75.773987l0,-143.809998l-81.989258,67.167969l-41.482422,-22.382935zm257.305664,0l-41.453125,22.387939l-82.000977,-67.172974l0,143.811035l123.454102,-75.774048l0,-23.251953zm-133.833984,-216.137054l-81.134766,-67.164001l-128.743164,79.21698l81.225586,66.304993l128.652344,-78.357971z" id="svg_118"/>
   </g>
   <g transform="matrix(0.115466, 0, 0, 0.115466, -595.126, -31.6624)" id="svg_121"/>
   <g transform="matrix(0.115466, 0, 0, 0.115466, -595.126, -31.6624)" id="svg_122"/>
   <g transform="matrix(0.115466, 0, 0, 0.115466, -595.126, -31.6624)" id="svg_123"/>
   <g transform="matrix(0.115466, 0, 0, 0.115466, -595.126, -31.6624)" id="svg_124"/>
   <g transform="matrix(0.115466, 0, 0, 0.115466, -595.126, -31.6624)" id="svg_125"/>
   <g transform="matrix(0.115466, 0, 0, 0.115466, -595.126, -31.6624)" id="svg_126"/>
   <g transform="matrix(0.115466, 0, 0, 0.115466, -595.126, -31.6624)" id="svg_127"/>
   <g transform="matrix(0.115466, 0, 0, 0.115466, -595.126, -31.6624)" id="svg_128"/>
   <g transform="matrix(0.115466, 0, 0, 0.115466, -595.126, -31.6624)" id="svg_129"/>
   <g transform="matrix(0.115466, 0, 0, 0.115466, -595.126, -31.6624)" id="svg_130"/>
   <g transform="matrix(0.115466, 0, 0, 0.115466, -595.126, -31.6624)" id="svg_131"/>
   <g transform="matrix(0.115466, 0, 0, 0.115466, -595.126, -31.6624)" id="svg_132"/>
   <g transform="matrix(0.115466, 0, 0, 0.115466, -595.126, -31.6624)" id="svg_133"/>
   <g transform="matrix(0.115466, 0, 0, 0.115466, -595.126, -31.6624)" id="svg_134"/>
   <g transform="matrix(0.115466, 0, 0, 0.115466, -595.126, -31.6624)" id="svg_135"/>
  </g>
 </g>
</svg>