<?xml version="1.0" encoding="utf-8"?>
<!-- Generator: Adobe Illustrator 16.0.0, SVG Export Plug-In . SVG Version: 6.00 Build 0)  -->
<!DOCTYPE svg PUBLIC "-//W3C//DTD SVG 1.1//EN" "http://www.w3.org/Graphics/SVG/1.1/DTD/svg11.dtd">
<svg version="1.1" id="Layer_1" xmlns="http://www.w3.org/2000/svg" xmlns:xlink="http://www.w3.org/1999/xlink" x="0px" y="0px"
	 width="32.184px" height="43.379px" viewBox="0 0 32.184 43.379" enable-background="new 0 0 32.184 43.379" xml:space="preserve">
<path fill="#555655" d="M27.72,30.194c-2.657-0.462-6.295-3.092-6.295-4.233v-2.884c0-1.075,1.427-3.087,2.035-4.94
	c0.057-0.175,0.423,0.026,0.779-0.414c0.67-0.842,0.769-2.124,0.921-2.706c0.245-0.917-0.846-0.953-0.846-0.953
	s0.812-4.808,0.09-7.842C23.427,2.086,18.175,0,16.12,0c-2.055,0-7.302,2.086-8.283,6.222c-0.719,3.034,0.109,7.842,0.109,7.842
	s-1.048,0.037-0.81,0.953c0.156,0.583,0.329,1.864,1.002,2.706c0.353,0.439,0.568,0.238,0.626,0.414
	c0.604,1.853,2.031,3.865,2.031,4.94v2.884c0,1.141-3.641,3.77-6.299,4.233c-3.412,0.594-5.099,3-4.3,9.002
	c0.4,2.998,8.154,4.287,15.836,4.176c7.681,0.111,15.553-1.178,15.952-4.176C32.786,33.194,31.136,30.788,27.72,30.194z"/>
</svg>
