<?xml version="1.0" encoding="utf-8"?>
<!-- Generator: Adobe Illustrator 16.0.0, SVG Export Plug-In . SVG Version: 6.00 Build 0)  -->
<!DOCTYPE svg PUBLIC "-//W3C//DTD SVG 1.1//EN" "http://www.w3.org/Graphics/SVG/1.1/DTD/svg11.dtd">
<svg version="1.1" id="Capa_1" xmlns="http://www.w3.org/2000/svg" xmlns:xlink="http://www.w3.org/1999/xlink" x="0px" y="0px"
	 width="1360px" height="800px" viewBox="0 0 1360 800" enable-background="new 0 0 1360 800" xml:space="preserve">
<path fill="#DAAB21" d="M680.002,0c-220.564,0-400,179.438-400,400c0,220.563,179.434,400,399.998,400
	c220.563,0,399.996-179.438,399.996-400C1079.996,179.438,900.563,0,680.002,0z M680.002,135.21
	c48.521,0,94.025,13.13,133.175,36.006L451.219,533.175C428.341,494.027,415.211,448.52,415.211,400
	C415.211,253.994,533.998,135.21,680.002,135.21z M680.002,664.789c-48.521,0-94.025-13.13-133.175-36.006l361.958-361.958
	c22.876,39.149,36.007,84.655,36.007,133.175C944.792,546.006,826.004,664.789,680.002,664.789z"/>
</svg>
