<?xml version="1.0" encoding="utf-8"?>
<!-- Generator: Adobe Illustrator 16.0.0, SVG Export Plug-In . SVG Version: 6.00 Build 0)  -->
<!DOCTYPE svg PUBLIC "-//W3C//DTD SVG 1.1//EN" "http://www.w3.org/Graphics/SVG/1.1/DTD/svg11.dtd">
<svg version="1.1" id="Capa_1" xmlns="http://www.w3.org/2000/svg" xmlns:xlink="http://www.w3.org/1999/xlink" x="0px" y="0px"
	 width="512px" height="512px" viewBox="0 0 512 512" enable-background="new 0 0 512 512" xml:space="preserve">
<g>
	<g>
		<g>
			<g>
				<path fill="#3BAD4E" d="M469.332,0H42.666C19.115,0,0,19.115,0,42.666v426.667c0,23.552,19.115,42.666,42.666,42.666h426.666
					c23.553,0,42.666-19.115,42.666-42.666V42.666C512,19.115,492.884,0,469.332,0z M469.332,469.333H42.666V42.666h426.666V469.333
					L469.332,469.333z"/>
				<path fill="#3BAD4E" d="M170.666,384h170.667c23.552,0,42.666-19.116,42.666-42.666V170.667
					c0-23.552-19.115-42.666-42.666-42.666H170.666C147.115,128,128,147.116,128,170.667v170.667
					C127.999,364.885,147.115,384,170.666,384z"/>
			</g>
		</g>
	</g>
</g>
</svg>
