<svg xmlns="http://www.w3.org/2000/svg" id="Capa_1" style="fill: #ffffff;" viewBox="0 0 71.577 71.577" x="0px" y="0px" xmlns:xlink="http://www.w3.org/1999/xlink" version="1.1" xmlns:xml="http://www.w3.org/XML/1998/namespace" xml:space="preserve">
<g style="fill: #ffffff;">
	<g style="fill: #ffffff;">
		<polygon style="fill: #ffffff;" points="25.052,57.523 17.894,64.681 53.683,64.681 46.525,57.523" />
		<path style="fill: #ffffff;" d="M 0 6.896 v 46.525 h 71.577 V 6.896 H 0 Z M 33.237 40.863 c -3.518 -0.512 -6.943 -1.009 -10.382 -1.51 c 0 -2.845 0 -5.604 0 -8.421 c 3.471 0 6.9 0 10.382 0 C 33.237 34.221 33.237 37.503 33.237 40.863 Z M 33.248 29.425 c -3.464 0 -6.871 0 -10.361 0 c 0 -2.788 0 -5.572 0 -8.478 c 3.411 -0.494 6.857 -0.995 10.361 -1.507 C 33.248 22.794 33.248 26.058 33.248 29.425 Z M 48.644 43.089 c -4.667 -0.673 -9.273 -1.338 -13.922 -2.011 c 0 -3.389 0 -6.735 0 -10.139 c 4.62 0 9.216 0 13.922 0 C 48.644 34.976 48.644 38.963 48.644 43.089 Z M 48.719 29.418 c -4.724 0 -9.319 0 -13.979 0 c 0 -3.382 0 -6.746 0 -10.185 c 2.162 -0.315 4.316 -0.619 6.474 -0.945 c 2.273 -0.344 4.545 -0.705 6.811 -1.056 c 0.233 0 0.469 0 0.701 0 C 48.719 21.273 48.719 25.32 48.719 29.418 Z" />
	</g>
</g>
<g style="fill: #ffffff;">
</g>
<g style="fill: #ffffff;">
</g>
<g style="fill: #ffffff;">
</g>
<g style="fill: #ffffff;">
</g>
<g style="fill: #ffffff;">
</g>
<g style="fill: #ffffff;">
</g>
<g style="fill: #ffffff;">
</g>
<g style="fill: #ffffff;">
</g>
<g style="fill: #ffffff;">
</g>
<g style="fill: #ffffff;">
</g>
<g style="fill: #ffffff;">
</g>
<g style="fill: #ffffff;">
</g>
<g style="fill: #ffffff;">
</g>
<g style="fill: #ffffff;">
</g>
<g style="fill: #ffffff;">
</g>
</svg>