<svg xmlns="http://www.w3.org/2000/svg" id="Capa_1" style="fill: #ffffff;" viewBox="0 0 89.471 89.471" x="0px" y="0px" xmlns:xlink="http://www.w3.org/1999/xlink" version="1.1" xmlns:xml="http://www.w3.org/XML/1998/namespace" xml:space="preserve">
<g style="fill: #ffffff;">
	<g style="fill: #ffffff;">
		<g style="fill: #ffffff;">
			<path style="fill: #ffffff;" d="M 67.998 0 H 21.473 c -1.968 0 -3.579 1.61 -3.579 3.579 v 82.314 c 0 1.968 1.61 3.579 3.579 3.579 h 46.525 c 1.968 0 3.579 -1.61 3.579 -3.579 V 3.579 C 71.577 1.61 69.967 0 67.998 0 Z M 44.736 65.811 c -2.963 0 -5.368 -2.409 -5.368 -5.368 c 0 -2.963 2.405 -5.368 5.368 -5.368 c 2.963 0 5.368 2.405 5.368 5.368 C 50.104 63.403 47.699 65.811 44.736 65.811 Z M 64.419 39.704 H 25.052 v -1.789 h 39.367 V 39.704 Z M 64.419 28.967 H 25.052 v -1.789 h 39.367 V 28.967 Z M 64.419 17.336 H 25.052 V 6.599 h 39.367 V 17.336 Z" />
		</g>
		<g style="fill: #ffffff;">
			<ellipse style="fill: #ffffff;" cx="59.638" cy="13.968" rx="1.789" ry="0.895" />
		</g>
	</g>
</g>
<g style="fill: #ffffff;">
</g>
<g style="fill: #ffffff;">
</g>
<g style="fill: #ffffff;">
</g>
<g style="fill: #ffffff;">
</g>
<g style="fill: #ffffff;">
</g>
<g style="fill: #ffffff;">
</g>
<g style="fill: #ffffff;">
</g>
<g style="fill: #ffffff;">
</g>
<g style="fill: #ffffff;">
</g>
<g style="fill: #ffffff;">
</g>
<g style="fill: #ffffff;">
</g>
<g style="fill: #ffffff;">
</g>
<g style="fill: #ffffff;">
</g>
<g style="fill: #ffffff;">
</g>
<g style="fill: #ffffff;">
</g>
</svg>