<svg xmlns="http://www.w3.org/2000/svg" id="Capa_1" style="fill: #ffffff;" viewBox="0 0 85.348 85.348" x="0px" y="0px" xmlns:xlink="http://www.w3.org/1999/xlink" version="1.1" xmlns:xml="http://www.w3.org/XML/1998/namespace" xml:space="preserve">
<g style="fill: #ffffff;">
	<g style="fill: #ffffff;">
		<path style="fill: #ffffff;" d="M 77.45 57.691 v -3.16 V 35.563 V 16.595 c 0 -1.736 -1.424 -3.16 -3.164 -3.16 h -63.22 c -1.739 0 -3.167 1.417 -3.167 3.16 v 18.968 v 18.968 v 3.16 L 0 67.175 c 0 2.613 2.122 4.738 4.738 4.738 H 80.61 c 2.616 0 4.738 -2.126 4.738 -4.738 L 77.45 57.691 Z M 49.002 70.339 H 36.358 c -0.44 0 -0.791 -0.351 -0.791 -0.791 s 0.351 -0.791 0.791 -0.791 h 12.644 c 0.433 0 0.791 0.351 0.791 0.791 C 49.782 69.988 49.435 70.339 49.002 70.339 Z M 29.644 67.179 l 2.412 -2.895 h 21.237 l 2.412 2.895 H 29.644 Z M 72.998 52.101 c 0 1.525 -1.242 2.759 -2.756 2.759 H 15.106 c -1.514 0 -2.756 -1.245 -2.756 -2.759 V 19.032 c 0 -1.525 1.242 -2.759 2.756 -2.759 h 55.136 c 1.514 0 2.756 1.242 2.756 2.759 C 72.998 19.032 72.998 52.101 72.998 52.101 Z" />
		<path style="fill: #ffffff;" d="M 48.264 37.789 l -7.766 -7.766 c 0.655 -1.922 0.229 -4.119 -1.292 -5.647 c -1.428 -1.428 -3.454 -1.875 -5.272 -1.414 l 3.343 3.343 l 0.193 1.764 l -2.351 2.344 l -1.754 -0.2 l -3.346 -3.335 c -0.472 1.825 -0.021 3.84 1.41 5.272 c 1.535 1.532 3.733 1.943 5.655 1.292 l 7.759 7.766 c -0.651 1.922 -0.225 4.116 1.296 5.647 c 1.428 1.424 3.45 1.879 5.275 1.414 l -3.346 -3.343 l -0.193 -1.761 l 2.341 -2.348 l 1.768 0.197 l 3.343 3.339 c 0.476 -1.822 0.021 -3.833 -1.414 -5.272 C 52.387 37.556 50.19 37.141 48.264 37.789 Z" />
	</g>
</g>
<g style="fill: #ffffff;">
</g>
<g style="fill: #ffffff;">
</g>
<g style="fill: #ffffff;">
</g>
<g style="fill: #ffffff;">
</g>
<g style="fill: #ffffff;">
</g>
<g style="fill: #ffffff;">
</g>
<g style="fill: #ffffff;">
</g>
<g style="fill: #ffffff;">
</g>
<g style="fill: #ffffff;">
</g>
<g style="fill: #ffffff;">
</g>
<g style="fill: #ffffff;">
</g>
<g style="fill: #ffffff;">
</g>
<g style="fill: #ffffff;">
</g>
<g style="fill: #ffffff;">
</g>
<g style="fill: #ffffff;">
</g>
</svg>