<svg xmlns="http://www.w3.org/2000/svg" id="Capa_1" style="fill: #ffffff;" viewBox="0 0 92.821 92.821" x="0px" y="0px" xmlns:xlink="http://www.w3.org/1999/xlink" version="1.1" xmlns:xml="http://www.w3.org/XML/1998/namespace" xml:space="preserve">
<g style="fill: #ffffff;">
	<g style="fill: #ffffff;">
		<path style="fill: #ffffff;" d="M 77.45 65.06 V 52.924 h -4.452 v 9.702 c 0 1.517 -1.242 2.756 -2.756 2.756 H 15.106 c -1.514 0 -2.756 -1.238 -2.756 -2.756 V 29.554 c 0 -1.521 1.242 -2.759 2.756 -2.759 H 46.65 v -2.827 H 11.066 c -1.739 0 -3.167 1.417 -3.167 3.16 v 18.971 V 65.06 v 3.16 L 0 77.704 c 0 2.62 2.122 4.746 4.738 4.746 h 75.868 c 2.616 0 4.738 -2.126 4.738 -4.746 l -7.899 -9.484 v -3.16 H 77.45 Z M 49.002 80.864 H 36.354 c -0.44 0 -0.791 -0.351 -0.791 -0.791 s 0.351 -0.791 0.791 -0.791 h 12.644 c 0.433 0 0.791 0.351 0.791 0.791 C 49.782 80.513 49.435 80.864 49.002 80.864 Z M 29.644 77.704 l 2.412 -2.895 h 21.237 l 2.412 2.895 C 55.705 77.704 29.644 77.704 29.644 77.704 Z" />
		<g style="fill: #ffffff;">
			<rect style="fill: #ffffff;" x="37.485" y="47.287" width="6.603" height="6.596" />
			<rect style="fill: #ffffff;" x="41.622" y="38.219" width="6.599" height="6.603" />
			<rect style="fill: #ffffff;" x="48.114" y="46.5" width="6.599" height="6.599" />
			<rect style="fill: #ffffff;" x="53.361" y="35.534" width="7.831" height="7.831" />
			<rect style="fill: #ffffff;" x="64.437" y="11.531" width="7.831" height="7.831" />
			<rect style="fill: #ffffff;" x="50.229" y="25.693" width="7.831" height="7.831" />
			<rect style="fill: #ffffff;" x="62.537" y="22.343" width="11.184" height="11.184" />
			<rect style="fill: #ffffff;" x="70.89" y="35.824" width="13.528" height="13.532" />
			<rect style="fill: #ffffff;" x="76.011" y="10.372" width="16.81" height="16.81" />
			<rect style="fill: #ffffff;" x="60.518" y="44.263" width="7.831" height="7.831" />
		</g>
	</g>
</g>
<g style="fill: #ffffff;">
</g>
<g style="fill: #ffffff;">
</g>
<g style="fill: #ffffff;">
</g>
<g style="fill: #ffffff;">
</g>
<g style="fill: #ffffff;">
</g>
<g style="fill: #ffffff;">
</g>
<g style="fill: #ffffff;">
</g>
<g style="fill: #ffffff;">
</g>
<g style="fill: #ffffff;">
</g>
<g style="fill: #ffffff;">
</g>
<g style="fill: #ffffff;">
</g>
<g style="fill: #ffffff;">
</g>
<g style="fill: #ffffff;">
</g>
<g style="fill: #ffffff;">
</g>
<g style="fill: #ffffff;">
</g>
</svg>