<svg xmlns="http://www.w3.org/2000/svg" id="Capa_1" style="fill: #ffffff;" viewBox="0 0 71.577 71.577" x="0px" y="0px" xmlns:xlink="http://www.w3.org/1999/xlink" version="1.1" xmlns:xml="http://www.w3.org/XML/1998/namespace" xml:space="preserve">
<g style="fill: #ffffff;">
	<g style="fill: #ffffff;">
		<polygon style="fill: #ffffff;" points="25.052,57.523 17.894,64.681 53.683,64.681 46.525,57.523" />
		<path style="fill: #ffffff;" d="M 35.789 24.791 c -2.963 0 -5.368 2.405 -5.368 5.368 s 2.405 5.368 5.368 5.368 c 2.963 0 5.368 -2.405 5.368 -5.368 S 38.752 24.791 35.789 24.791 Z M 35.789 34.3 c -2.287 0 -4.144 -1.857 -4.144 -4.144 c 0 -2.287 1.857 -4.144 4.144 -4.144 c 2.287 0 4.144 1.857 4.144 4.144 C 39.933 32.442 38.075 34.3 35.789 34.3 Z" />
		<circle style="fill: #ffffff;" cx="35.789" cy="30.159" r="2.072" />
		<path style="fill: #ffffff;" d="M 0 6.896 v 46.525 h 71.577 V 6.896 H 0 Z M 35.789 43.97 c -7.627 0 -13.811 -6.184 -13.811 -13.811 s 6.184 -13.811 13.811 -13.811 s 13.811 6.184 13.811 13.811 C 49.599 37.789 43.415 43.97 35.789 43.97 Z" />
	</g>
</g>
<g style="fill: #ffffff;">
</g>
<g style="fill: #ffffff;">
</g>
<g style="fill: #ffffff;">
</g>
<g style="fill: #ffffff;">
</g>
<g style="fill: #ffffff;">
</g>
<g style="fill: #ffffff;">
</g>
<g style="fill: #ffffff;">
</g>
<g style="fill: #ffffff;">
</g>
<g style="fill: #ffffff;">
</g>
<g style="fill: #ffffff;">
</g>
<g style="fill: #ffffff;">
</g>
<g style="fill: #ffffff;">
</g>
<g style="fill: #ffffff;">
</g>
<g style="fill: #ffffff;">
</g>
<g style="fill: #ffffff;">
</g>
</svg>