<svg xmlns="http://www.w3.org/2000/svg" id="Capa_1" style="fill: #ffffff;" viewBox="0 0 115.783 115.783" x="0px" y="0px" xmlns:xlink="http://www.w3.org/1999/xlink" version="1.1" xmlns:xml="http://www.w3.org/XML/1998/namespace" xml:space="preserve">
<g style="fill: #ffffff;">
	<g style="fill: #ffffff;">
		<polygon style="fill: #ffffff;" points="52.101,49.626 48.243,53.488 67.536,53.488 63.682,49.626" />
		<path style="fill: #ffffff;" d="M 50.526 32.866 c 0.011 -0.079 -0.197 -0.376 -0.286 -0.465 c -0.286 -0.279 -0.48 -0.225 -0.737 0.104 c 0.254 0.032 0.283 -0.319 0.365 -0.039 c 0.319 0.039 0.387 0.376 0.297 0.591 c 0.161 0.025 0.319 0.225 0.465 0.025 C 50.566 32.988 50.666 32.909 50.526 32.866 Z" />
		<path style="fill: #ffffff;" d="M 61.993 28.633 c -0.014 -0.007 -0.021 -0.025 -0.021 -0.047 c -0.032 0.021 -0.064 0.036 -0.097 0.036 c 0.029 0.032 0.054 0.147 0.097 0.157 C 61.989 28.761 61.989 28.676 61.993 28.633 Z" />
		<path style="fill: #ffffff;" d="M 60.053 26.782 c 0 0.075 0.014 0.057 0.014 0.154 c 0.007 0 0.021 0 0.032 0 c -0.007 -0.011 -0.018 -0.018 0 -0.039 c 0.136 0.068 0.029 0.025 0.025 0.118 c 0 0.043 0.172 0.021 0.197 0.025 c -0.047 0.061 0.007 0.072 0.075 0.072 c 0 0.086 -0.118 0.086 -0.186 0.079 c 0 0.1 -0.082 0.111 -0.082 0.165 c 0 0.014 0.222 0.057 0.251 0.025 c 0 0.047 -0.229 0.086 -0.279 0.168 c 0.082 0.004 0.798 -0.061 0.798 -0.089 c -0.029 -0.007 -0.057 -0.014 -0.082 -0.018 c 0.093 -0.111 0.093 -0.218 0 -0.172 c -0.014 0.004 -0.021 0.011 -0.05 0.014 c -0.007 -0.161 -0.251 -0.326 -0.412 -0.369 c 0.014 -0.039 0.154 -0.093 0.14 -0.161 c -0.125 0.057 -0.208 0.043 -0.247 -0.036 c 0.036 -0.014 0.068 -0.032 0.1 -0.054 c 0 -0.136 -0.344 0.043 -0.272 0.072 c 0 0.014 -0.093 -0.014 -0.104 -0.014 C 59.96 26.761 59.992 26.772 60.053 26.782 Z" />
		<path style="fill: #ffffff;" d="M 60.186 27.079 c -0.025 0.007 -0.029 0.018 -0.029 0.032 c 0.029 0 0.036 0 0.05 0.004 c 0 -0.014 0 -0.025 0 -0.032 C 60.2 27.079 60.193 27.079 60.186 27.079 Z" />
		<path style="fill: #ffffff;" d="M 51.31 33.457 C 51.292 33.392 51.299 33.41 51.31 33.457 c -0.061 -0.111 -0.039 -0.272 -0.197 -0.297 c -0.075 -0.011 -0.161 0.057 -0.215 -0.032 c -0.118 -0.179 -0.125 0.286 -0.129 0.333 c -0.029 -0.014 -0.515 0.029 -0.268 0.172 c 0.097 -0.265 0.322 0.147 0.326 0.147 c 0.036 0.007 0.19 -0.229 0.2 -0.129 c 0 0.004 0.329 0.004 0.344 0.007 c 0 0.007 -0.043 -0.14 -0.057 -0.208 C 51.31 33.453 51.31 33.457 51.31 33.457 Z" />
		<path style="fill: #ffffff;" d="M 62.809 29.313 c -0.061 -0.014 -0.308 -0.036 -0.361 -0.018 c 0.007 0.054 0.279 0.204 0.344 0.211 C 62.798 29.502 62.802 29.348 62.809 29.313 Z" />
		<path style="fill: #ffffff;" d="M 51.532 33.793 c -0.036 0.115 0.161 0.172 0.218 0.093 C 51.747 33.833 51.568 33.682 51.532 33.793 Z" />
		<path style="fill: #ffffff;" d="M 65.346 29.91 c -0.075 0.004 -0.179 0.036 -0.233 0.061 C 65.139 30.1 65.35 29.975 65.346 29.91 Z" />
		<path style="fill: #ffffff;" d="M 61.868 28.851 c 0.011 0.032 0.057 0.057 0.057 0.089 C 61.975 29.309 62.215 28.801 61.868 28.851 Z" />
		<path style="fill: #ffffff;" d="M 53.124 26.178 c -0.018 0 -0.039 0.004 -0.057 0.007 c 0.032 0 0.057 0 0.079 -0.007 c 0.089 -0.004 0.168 -0.014 0.147 -0.036 c 0.007 -0.004 0.025 -0.007 0.036 -0.007 c -0.054 -0.05 -0.261 -0.029 -0.333 -0.021 c -0.018 0.007 -0.014 0.011 0.018 0.011 c -0.007 0.004 -0.021 0.007 -0.032 0.007 c 0.007 0.004 0.029 0 0.082 -0.004 c -0.032 0.021 -0.072 0.029 -0.107 0.025 C 52.974 26.17 53.049 26.178 53.124 26.178 Z" />
		<path style="fill: #ffffff;" d="M 52.895 26.213 c -0.039 -0.004 -0.011 -0.021 -0.075 -0.021 c -0.021 0.011 -0.007 0.036 0.018 0.036 C 52.86 26.228 52.881 26.224 52.895 26.213 Z" />
		<path style="fill: #ffffff;" d="M 53.636 26.185 c 0.029 0 0.05 -0.007 0.075 -0.021 c -0.072 0.004 -0.147 0 -0.215 0.014 C 53.493 26.178 53.622 26.185 53.636 26.185 Z" />
		<path style="fill: #ffffff;" d="M 59.631 27.351 c 0.215 0.014 0.347 -0.047 0.351 -0.24 c 0 -0.029 0.179 -0.136 -0.064 -0.154 c -0.036 -0.004 -0.243 -0.011 -0.168 0.075 c -0.036 0.014 -0.165 0 -0.168 0.047 c 0.025 0.021 0.054 0.043 0.075 0.064 C 59.642 27.197 59.409 27.337 59.631 27.351 Z" />
		<path style="fill: #ffffff;" d="M 53.482 26.149 c -0.125 0.014 0.075 0.004 0.136 0 C 53.676 26.081 53.414 26.099 53.482 26.149 Z" />
		<path style="fill: #ffffff;" d="M 59.924 26.707 c 0.047 0 0.075 -0.025 0.079 -0.05 C 59.996 26.657 59.846 26.7 59.924 26.707 Z" />
		<path style="fill: #ffffff;" d="M 53.55 26.067 c 0.007 -0.004 0.018 -0.011 0.029 -0.014 c -0.014 0 -0.05 0 -0.082 0.004 C 53.457 26.074 53.59 26.067 53.55 26.067 Z" />
		<path style="fill: #ffffff;" d="M 49.632 32.609 c 0.021 -0.047 0.032 0.107 0.111 -0.115 c -0.025 -0.029 -0.025 0.007 -0.043 0.047 C 49.664 32.544 49.642 32.569 49.632 32.609 Z" />
		<polygon style="fill: #ffffff;" points="51.886,26.789 51.897,26.789 51.9,26.789" />
		<path style="fill: #ffffff;" d="M 62.73 26.983 c 0.021 -0.029 0.047 -0.057 0.068 -0.086 C 62.769 26.897 62.673 26.943 62.73 26.983 Z" />
		<path style="fill: #ffffff;" d="M 63.142 26.918 c 0.05 0.004 0.072 -0.039 0.072 -0.075 c -0.021 -0.011 -0.125 -0.039 -0.036 0.025 c -0.032 0 -0.054 0.011 -0.079 0.011 C 63.095 26.89 63.106 26.915 63.142 26.918 Z" />
		<path style="fill: #ffffff;" d="M 50.15 33.568 c -0.021 -0.025 -0.068 -0.082 -0.122 -0.093 c -0.036 -0.007 -0.168 0.161 0.132 0.15 c 0.007 -0.032 0.007 -0.057 -0.014 -0.075 C 50.147 33.554 50.15 33.557 50.15 33.568 Z" />
		<path style="fill: #ffffff;" d="M 51.886 26.789 c -0.082 0 -0.147 0 -0.165 0.014 C 51.7 26.818 51.843 26.797 51.886 26.789 Z" />
		<polygon style="fill: #ffffff;" points="51.324,26.815 51.289,26.843 51.335,26.836" />
		<path style="fill: #ffffff;" d="M 52.298 26.725 c 0 0 -0.014 -0.032 -0.025 -0.029 c 0.039 -0.025 0.125 -0.018 0.172 -0.029 c -0.089 -0.072 -0.161 0.007 -0.104 -0.122 c 0.011 -0.029 0.154 -0.115 0.165 -0.111 c -0.168 -0.061 -0.293 0.136 -0.419 0.143 c 0.021 0 -0.19 -0.075 -0.319 -0.043 c 0.007 -0.036 -0.004 -0.047 -0.021 -0.047 c 0.004 -0.004 0.004 -0.014 0.004 -0.029 c -0.018 0.014 -0.032 0.029 -0.047 0.039 l 0 0 c -0.007 0.004 -0.014 0.011 -0.021 0.014 c -0.068 0.05 -0.129 0.107 -0.197 0.161 c 0.043 -0.004 0.1 -0.014 0.14 0.004 c -0.104 0.011 -0.157 0.029 -0.233 0.075 c -0.007 0.004 -0.014 0.011 -0.021 0.018 c 0.025 0 0.057 -0.004 0.061 0 C 51.467 26.807 52.176 26.786 52.298 26.725 Z" />
		<path style="fill: #ffffff;" d="M 50.755 31.531 c -0.018 0 -0.061 0.018 -0.079 0.039 c 0.025 0.004 0.064 0.014 0.111 0.011 C 50.787 31.567 50.787 31.535 50.755 31.531 Z" />
		<path style="fill: #ffffff;" d="M 50.598 31.871 c -0.007 0.014 -0.029 0.208 0.021 0.097 C 50.63 31.947 50.612 31.846 50.598 31.871 Z" />
		<path style="fill: #ffffff;" d="M 52.82 26.303 c 0.036 0 0.089 -0.011 0.143 -0.014 c -0.032 -0.007 -0.147 -0.054 -0.147 -0.021 l 0 0 l -0.032 0.018 c 0.011 0.004 0.014 0.011 0.047 0.007 C 52.82 26.296 52.82 26.296 52.82 26.303 Z" />
		<path style="fill: #ffffff;" d="M 50.859 32.766 c 0.075 0.004 0.115 -0.025 0.122 -0.093 C 50.963 32.687 50.791 32.748 50.859 32.766 Z" />
		<path style="fill: #ffffff;" d="M 61.248 25.845 c -0.007 0 -0.014 0 -0.021 0 c 0.036 0.025 0.161 0.011 0.222 0.007 c -0.057 0.007 -0.15 0.025 -0.15 0.021 c 0 0.025 0.172 0.021 0.193 0.025 c -0.057 0 -0.104 0 -0.161 0 c 0.011 0.122 0.351 0.004 0.462 -0.021 c 0.011 0.011 0.036 0.021 0.057 0.025 c -0.007 0.014 -0.039 0.007 -0.039 0.025 c 0.032 0.004 0.089 0.007 0.125 0.011 c -0.007 0.004 -0.004 0.011 0 0.018 c 0.075 -0.004 0.1 -0.021 0.179 -0.025 c -0.079 -0.043 -0.186 -0.054 -0.265 -0.064 c 0.007 0 0.014 0 0.029 0 c -0.021 -0.007 -0.043 -0.014 -0.072 -0.025 c 0.15 0.014 0.422 -0.029 0.483 -0.036 c -0.161 -0.079 -0.433 -0.043 -0.608 -0.047 c 0.007 0.004 0.007 0.004 0.014 0.007 c -0.014 0 -0.029 0 -0.043 0 v 0.004 c -0.029 -0.004 -0.057 -0.004 -0.082 -0.004 c 0.014 0.032 0.104 0.029 0.125 0.029 c 0.007 0 0.111 0.004 0.125 0.007 c -0.039 0 -0.075 0.004 -0.118 0 c 0.007 0.007 0.014 0.014 0.029 0.018 c -0.064 -0.014 -0.125 -0.018 -0.175 -0.014 c 0 -0.004 0.007 -0.007 0.007 -0.014 c 0 -0.004 -0.215 -0.061 -0.111 0.029 c -0.021 -0.004 -0.175 -0.025 -0.125 -0.014 c -0.014 -0.004 -0.043 -0.004 -0.064 -0.014 c 0.007 0 0.014 -0.004 0.029 -0.007 c -0.064 -0.011 -0.118 -0.007 -0.183 0.007 c 0.021 0.011 0.05 0.018 0.075 0.021 C 61.173 25.83 61.206 25.838 61.248 25.845 Z" />
		<path style="fill: #ffffff;" d="M 52.813 27.233 c 0.054 -0.007 0.168 -0.047 0.218 -0.068 c -0.072 -0.018 -0.132 0.014 -0.193 0.043 C 52.831 27.215 52.82 27.226 52.813 27.233 Z" />
		<polygon style="fill: #ffffff;" points="61.12,25.827 61.12,25.823 61.112,25.827" />
		<path style="fill: #ffffff;" d="M 62.007 27.165 c 0.068 0.014 0.072 -0.068 0.132 -0.075 c -0.089 -0.154 -0.265 0.007 -0.082 0.043 C 62.061 27.151 62.036 27.162 62.007 27.165 Z" />
		<path style="fill: #ffffff;" d="M 54.066 28.654 c -0.018 0.032 0.175 0.143 0.229 0.036 c -0.082 0.025 -0.15 0.007 -0.2 -0.057 C 54.084 28.636 54.069 28.643 54.066 28.654 Z" />
		<path style="fill: #ffffff;" d="M 55.143 26.013 c 0 -0.011 -0.021 -0.014 -0.043 -0.014 c 0.039 0 0.064 0 0.075 -0.014 c -0.018 0 -0.036 0 -0.057 0 c 0.218 -0.057 0.455 -0.05 0.673 -0.111 c -0.039 0 -0.111 0.004 -0.122 0 c 0.021 -0.004 0.268 -0.004 0.283 -0.032 c 0.018 -0.036 -0.397 0.025 -0.24 -0.014 c -0.304 -0.107 -1.16 -0.032 -1.46 0.079 c 0.057 0 0.111 -0.007 0.165 -0.011 c -0.032 0.004 -0.05 0.007 -0.086 0.014 c 0.064 0.011 0.125 -0.014 0.19 -0.011 c -0.068 0.007 -0.122 0.007 -0.183 0.025 c 0.036 0 0.075 -0.004 0.107 -0.004 c -0.025 0.004 -0.05 0.007 -0.075 0.011 c 0.011 0.018 0.064 0.021 0.132 0.021 c 0.036 0.011 0.021 0.018 -0.043 0.018 c 0.025 0.004 0.097 0.029 0.089 0.036 c -0.14 0.093 -0.157 -0.011 -0.24 0.036 c 0.039 -0.021 0.036 -0.029 -0.007 -0.029 c -0.057 0.029 -0.222 -0.043 -0.304 -0.039 c -0.018 0.011 0.021 0.011 0.043 0.011 c -0.05 0 -0.097 0.004 -0.147 0.011 c 0.004 0.007 0.011 0.007 0.018 0.011 c -0.036 0 -0.075 -0.004 -0.107 0.011 c 0.025 0.011 0.05 0.014 0.075 0.014 c -0.039 0 -0.086 0 -0.129 0 c -0.032 0.025 0.011 0.025 0.097 0.021 c -0.007 0.004 -0.014 0.004 -0.018 0.004 c 0.068 0 0.175 0.007 0.208 0.011 c -0.075 0 -0.147 0.007 -0.222 0.021 c 0.011 0.014 0.029 0.018 0.043 0.021 c 0.007 0 0.021 0 0.032 -0.004 c -0.004 0 -0.014 0 -0.018 0.004 c 0.057 -0.014 0.222 -0.004 0.276 -0.007 c 0.004 -0.007 -0.004 -0.007 -0.004 -0.014 c 0.068 -0.014 0.183 -0.025 0.247 0.025 c -0.043 0.004 -0.351 -0.032 -0.215 0.029 c -0.05 0.004 -0.104 0.011 -0.15 0.025 c 0.247 -0.025 0.637 0.118 0.802 -0.043 c 0.011 -0.007 -0.061 -0.004 -0.086 0 c 0.039 -0.036 0.132 -0.018 0.15 -0.068 C 54.989 26.056 55.043 26.034 55.143 26.013 Z" />
		<path style="fill: #ffffff;" d="M 54.506 28.364 c -0.072 -0.036 -0.118 -0.093 -0.261 -0.075 C 54.309 28.339 54.424 28.425 54.506 28.364 Z" />
		<path style="fill: #ffffff;" d="M 52.369 26.192 c 0.032 -0.011 0.068 -0.011 0.1 -0.004 c -0.082 0.018 -0.175 0.057 -0.115 0.057 c 0.05 0 0.143 -0.014 0.172 -0.036 c -0.104 0.007 -0.086 0.004 0.054 -0.011 c 0 -0.007 -0.007 -0.011 -0.011 -0.014 c 0.011 0 0.021 0 0.036 -0.004 C 52.534 26.178 52.409 26.17 52.369 26.192 Z" />
		<polygon style="fill: #ffffff;" points="53.847,26.124 53.869,26.12 53.858,26.12" />
		<path style="fill: #ffffff;" d="M 57.763 26.747 c 0.286 0.029 0.444 0.15 0.748 0.014 c 0.021 -0.036 -0.1 -0.1 -0.018 -0.122 c -0.039 -0.004 -0.358 -0.039 -0.361 0 c -0.043 -0.025 -0.097 0.011 -0.129 -0.032 c -0.032 0.018 -0.125 0.054 -0.086 -0.039 c -0.043 -0.004 -0.107 0.014 -0.15 0.021 c -0.004 0.014 0.118 0.075 0.115 0.072 c -0.036 0.004 -0.115 0.007 -0.154 0.004 c 0.014 0.021 0.075 0.007 0.115 0.018 c -0.018 0.021 -0.036 0.032 -0.054 0.057 C 57.784 26.739 57.773 26.747 57.763 26.747 Z" />
		<path style="fill: #ffffff;" d="M 54.388 26.414 c 0.072 0 0.208 0 0.272 -0.029 c -0.082 -0.018 -0.272 -0.075 -0.354 -0.011 C 54.28 26.389 54.381 26.414 54.388 26.414 Z" />
		<path style="fill: #ffffff;" d="M 67.318 34.173 c -0.354 0.064 -0.49 0.168 -0.583 -0.261 c -0.072 -0.297 -0.58 -0.501 -0.648 -0.816 c -0.054 -0.236 -0.107 -0.322 -0.265 -0.497 c -0.147 -0.165 -0.093 -0.447 -0.211 -0.648 c -0.1 -0.175 -0.125 -0.358 -0.222 -0.537 c -0.14 -0.268 -0.426 -0.626 -0.44 -0.927 c 0.089 0.1 0.197 0.372 0.301 0.39 c 0.072 -0.293 0.075 -0.369 -0.036 -0.651 c -0.193 0.054 -0.365 -0.068 -0.544 0 c -0.243 0.093 -0.44 0.061 -0.687 -0.029 c -0.179 -0.064 -0.884 -0.476 -0.873 0.004 c 0.011 0.555 -0.655 -0.168 -0.82 -0.222 c -0.19 -0.061 -0.494 0.047 -0.494 -0.276 c 0 -0.179 0.075 -0.315 0.079 -0.476 c -0.057 0.05 -0.1 0.047 -0.147 -0.011 c -0.079 -0.125 -0.197 0.039 -0.283 0.043 c -0.186 0.007 -0.354 0 -0.533 0.007 c -0.279 0.011 -0.565 0.157 -0.805 0.29 c -0.293 0.172 -0.548 -0.079 -0.716 0.147 c 0.004 0 0.004 0 0.007 0 c -0.147 0.193 -0.315 0.365 -0.458 0.565 c -0.097 0.136 -0.064 0.311 -0.111 0.465 c -0.047 0.147 -0.208 0.283 -0.347 0.333 c -0.247 0.089 -0.347 0.372 -0.451 0.598 c -0.082 0.183 -0.15 0.354 -0.247 0.526 c -0.129 0.229 0.047 0.594 0.036 0.837 c -0.007 0.175 -0.072 0.379 -0.165 0.526 c -0.089 0.147 0.029 0.319 0.025 0.508 c -0.004 0 -0.011 0 -0.018 0 c 0.097 0.154 0.211 0.293 0.333 0.426 c 0.215 0.236 0.258 0.551 0.487 0.784 c 0.172 0.172 0.376 0.447 0.651 0.351 c 0.125 -0.043 0.225 -0.122 0.369 -0.125 c 0.115 -0.004 0.204 0.1 0.315 0.097 c 0.268 -0.007 0.533 -0.383 0.855 -0.39 c 0.233 -0.004 0.218 0.397 0.419 0.394 c 0.662 -0.014 0.58 0.458 0.412 0.916 c -0.104 0.293 0.183 0.573 0.344 0.78 c 0.168 0.208 0.186 0.519 0.251 0.769 c 0.064 0.236 0.175 0.605 0.118 0.852 c -0.057 0.243 -0.258 0.419 -0.304 0.669 c -0.068 0.351 0.075 0.698 0.222 1.006 c 0.154 0.293 0.161 0.419 0.197 0.741 c 0.075 0.701 0.608 1.206 0.601 1.879 c 0.068 -0.043 0.286 0.093 0.476 -0.004 c 0.197 -0.104 0.372 -0.057 0.573 -0.075 c 0.014 -0.082 0.39 -0.218 0.472 -0.322 c 0.179 -0.247 0.29 -0.533 0.487 -0.766 c 0.218 -0.254 -0.029 -0.44 0.222 -0.651 c 0.236 -0.197 0.315 -0.118 0.329 -0.505 c 0.004 -0.165 -0.308 -0.569 0.032 -0.637 c 0.039 -0.243 0.279 -0.347 0.465 -0.458 c 0.526 -0.329 0.118 -0.791 0.336 -1.245 c 0.075 -0.165 -0.175 -0.361 -0.175 -0.544 c 0 -0.172 -0.039 -0.344 -0.036 -0.523 c 0 -0.172 0.147 -0.261 0.183 -0.422 c 0.129 -0.605 0.651 -0.773 0.97 -1.242 c 0.276 -0.404 0.82 -1.36 0.612 -1.85 C 67.705 34.026 67.515 34.13 67.318 34.173 Z" />
		<path style="fill: #ffffff;" d="M 55.096 28.514 c -0.018 0 -0.043 0.004 -0.057 0.011 c 0.018 -0.05 0.036 -0.079 0.05 -0.107 c -0.029 0.011 -0.086 0.007 -0.136 0 c -0.018 0.004 -0.039 0.007 -0.061 0.011 l 0.007 -0.014 c -0.029 0 -0.054 0 -0.082 0 c 0.004 -0.025 0.018 -0.039 0.043 -0.047 c -0.05 -0.021 -0.097 -0.018 -0.143 0.007 c 0.004 -0.007 0.251 -0.211 0.186 -0.211 c -0.2 0 -0.347 0.283 -0.537 0.34 c 0 0.011 0.014 0.018 0.029 0.018 c -0.021 0.05 -0.097 0.036 -0.118 0.079 c -0.004 0.004 0.472 0.039 0.526 0.039 c -0.032 0.011 -0.057 0.029 -0.075 0.057 c -0.007 0.021 0.208 -0.093 0.204 -0.089 c 0.093 0.097 0.082 0.233 0.175 -0.011 c -0.032 0.014 -0.021 0.021 -0.072 0.018 C 55.068 28.547 55.057 28.586 55.096 28.514 Z" />
		<path style="fill: #ffffff;" d="M 57.748 26.356 c -0.014 0 -0.025 -0.007 -0.021 -0.018 c 0.054 -0.004 0.115 -0.014 0.14 -0.036 c -0.039 0.004 -0.075 0 -0.107 -0.021 c 0.014 -0.039 0.086 0.011 0.107 -0.043 c 0.021 -0.057 -0.111 -0.05 -0.104 -0.064 c 0.029 -0.072 0.243 0.029 0.272 -0.043 c -0.036 -0.018 -0.072 -0.029 -0.107 -0.032 c 0.014 0 0.039 -0.004 0.054 -0.007 c -0.061 -0.018 -0.125 -0.021 -0.19 -0.011 c 0.075 -0.039 0.483 -0.129 0.515 -0.186 c 0.111 -0.004 0.326 -0.018 0.358 -0.068 c 0.007 -0.014 -1.002 0.107 -1.059 0.115 c 0.011 -0.011 0.222 -0.075 0.225 -0.082 c 0.004 -0.004 -0.039 -0.004 -0.1 0.004 c 0.075 -0.011 0.136 -0.032 0.172 -0.064 c -0.533 -0.011 -1.117 -0.043 -1.636 0.079 c 0.004 0.004 0.018 0.004 0.029 0.011 c -0.025 0 -0.054 0.004 -0.079 0.011 c 0.025 0.018 0.054 0.025 0.086 0.025 c -0.047 0.004 -0.254 -0.039 -0.279 0 c -0.004 0.004 0 0.011 0.004 0.014 c -0.043 -0.014 -0.1 -0.025 -0.122 0.011 c -0.075 0.004 -0.601 0.025 -0.659 0.136 c 0.032 0.011 0.064 0.014 0.097 0.007 c -0.057 0.107 -0.297 0.014 -0.344 0.107 c -0.014 0.032 0.218 0.018 0.236 0.014 c -0.047 0.054 -0.175 -0.007 -0.215 0.054 c 0.032 -0.007 0.064 -0.004 0.093 0.011 c -0.007 0.007 -0.018 0.007 -0.032 0.014 c 0.032 0.018 0.068 0.021 0.1 0.014 c -0.004 0 -0.007 -0.004 -0.011 -0.004 c 0.1 -0.029 0.483 -0.029 0.412 0.15 c 0.047 0.011 0.047 0.029 -0.004 0.057 c 0.043 -0.004 0.154 0.061 0.172 0.064 c -0.032 0.05 -0.1 -0.011 -0.147 0 c -0.004 0.032 0.115 0.036 0.165 0.047 c -0.054 0.064 -0.193 0.079 -0.218 0.165 c 0.011 -0.004 0.021 -0.004 0.032 0 c -0.068 0.093 0.047 0.107 0.075 0.143 c -0.147 0.075 0.251 0.258 0.308 0.265 c 0.086 0.007 0.279 -0.322 0.44 -0.351 c 0 0.007 -0.004 0.014 -0.007 0.025 c 0.175 0.004 0.265 -0.097 0.419 -0.14 c 0.236 0.004 0.483 -0.036 0.705 -0.115 c -0.054 -0.007 -0.293 -0.004 -0.279 -0.047 c 0.075 -0.007 0.036 -0.007 0.047 -0.047 c 0.036 0.007 0.29 0.104 0.308 0.05 c 0.025 -0.086 -0.186 -0.122 -0.225 -0.143 c 0.025 -0.075 0.179 0.129 0.222 0 c -0.043 -0.021 -0.086 -0.043 -0.132 -0.054 C 57.548 26.378 57.677 26.439 57.748 26.356 Z" />
		<path style="fill: #ffffff;" d="M 54.549 28.672 c 0.004 -0.011 -0.014 -0.018 -0.014 -0.032 c -0.064 0.025 -0.115 0.064 -0.161 0.115 c -0.021 0.043 0.157 0.036 0.186 -0.029 C 54.456 28.726 54.531 28.711 54.549 28.672 Z" />
		<path style="fill: #ffffff;" d="M 52.795 26.453 c -0.075 0.05 -0.14 0 -0.208 0.043 c 0.089 0.125 0.333 0.043 0.429 -0.014 c -0.011 0 -0.043 0 -0.054 -0.004 c 0.068 -0.047 -0.025 -0.014 -0.061 -0.014 c 0.05 -0.007 0.097 -0.025 0.143 -0.043 C 53.035 26.424 52.598 26.446 52.795 26.453 Z" />
		<path style="fill: #ffffff;" d="M 52.742 26.321 c -0.039 0.007 -0.075 0.014 -0.115 0.032 c 0.021 0 0.025 0 0.047 0 C 52.709 26.356 52.731 26.346 52.742 26.321 Z" />
		<path style="fill: #ffffff;" d="M 54.495 26.274 c 0.014 -0.007 0.032 -0.011 0.05 -0.011 c -0.007 -0.05 -0.784 0.018 -0.734 0 c -0.018 -0.007 -0.104 0.007 -0.079 -0.014 c 0.032 0 0.068 -0.004 0.1 -0.004 c -0.011 -0.039 -0.412 -0.043 -0.451 -0.018 c 0.039 0.018 0.082 0.025 0.129 0.025 c 0.05 -0.032 0.079 -0.018 0.089 0.032 c -0.165 0.029 0.15 0.036 0.197 0.032 c 0.172 -0.097 0.537 0.079 0.734 -0.043 C 54.531 26.274 54.513 26.278 54.495 26.274 Z" />
		<path style="fill: #ffffff;" d="M 52.147 26.285 c 0.025 0.004 0.05 -0.004 0.075 -0.018 c -0.029 0.004 -0.054 0.004 -0.079 0.004 C 52.126 26.281 52.137 26.285 52.147 26.285 Z" />
		<path style="fill: #ffffff;" d="M 53.235 26.324 c 0.004 0 0.301 0.011 0.222 -0.032 c -0.057 -0.014 -0.111 -0.011 -0.165 0.018 C 53.286 26.31 53.25 26.317 53.235 26.324 Z" />
		<path style="fill: #ffffff;" d="M 53.039 26.246 c -0.011 0.014 0.021 0.011 0.064 0.011 c -0.057 0.036 -0.104 -0.014 -0.154 0.018 c 0 0.004 0.007 0.007 0.018 0.014 c 0.047 -0.004 0.089 -0.004 0.122 0.004 c -0.032 0.011 -0.104 0.018 -0.14 0.039 c 0.057 -0.036 0.322 0.05 0.322 -0.086 C 53.268 26.246 53.056 26.242 53.039 26.246 Z" />
		<path style="fill: #ffffff;" d="M 77.192 22.327 H 38.594 v 25.084 h 38.598 V 22.327 Z M 67.651 31.177 c -0.021 -0.025 -0.054 -0.054 -0.079 -0.079 c 0.068 0.172 0.129 0.347 0.186 0.523 c 0.004 -0.018 0.011 -0.039 0.036 -0.039 c 0.05 0.1 -0.018 0.218 0.097 0.29 c 0.032 0.111 0.05 0.229 0.075 0.34 c -0.057 -0.204 -0.147 -0.39 -0.215 -0.591 c -0.004 0.018 -0.007 0.036 -0.032 0.039 c -0.075 -0.2 -0.319 -0.304 -0.419 -0.508 c -0.175 -0.354 0.1 -0.211 0.265 -0.054 c -0.036 -0.082 -0.057 -0.172 -0.089 -0.254 C 67.522 30.959 67.601 31.059 67.651 31.177 Z M 66.835 29.509 c -0.011 0 -0.021 0.004 -0.032 0.007 c 0.025 0.036 0.036 0.079 0.061 0.122 c -0.079 -0.143 -0.172 -0.276 -0.254 -0.412 C 66.674 29.33 66.767 29.409 66.835 29.509 Z M 64.967 27.219 c 0.075 0.072 0.122 0.168 0.2 0.243 c -0.236 -0.229 -0.44 -0.494 -0.698 -0.701 C 64.652 26.925 64.82 27.09 64.967 27.219 Z M 51.972 26.324 c 0.004 0 0.007 0 0.014 0.004 c -0.011 0 -0.021 0.004 -0.029 0.007 C 51.961 26.331 51.965 26.328 51.972 26.324 Z M 49.417 28.801 c 0.021 -0.029 0.054 -0.054 0.075 -0.082 c -0.025 0.036 -0.061 0.068 -0.086 0.104 c -0.44 0.612 -0.809 1.27 -1.106 1.961 c 0.297 -0.694 0.669 -1.353 1.106 -1.961 C 49.41 28.815 49.413 28.808 49.417 28.801 Z M 52.634 43.893 c 0.011 -0.029 0.032 -0.047 0.064 -0.047 c 0.021 0.047 0.054 0.089 0.089 0.136 C 52.738 43.95 52.688 43.921 52.634 43.893 Z M 67.164 39.67 c -0.054 0.047 -0.093 0.104 -0.107 0.215 c -1.775 3.235 -5.214 5.429 -9.165 5.429 c -1.381 0 -2.695 -0.272 -3.905 -0.755 c -0.047 -0.14 -0.54 -0.236 -0.261 -0.404 c 0.183 -0.086 0.036 -0.329 -0.007 -0.426 c 0.032 -0.007 0.193 0.043 0.147 -0.061 c 0.032 0.068 -0.44 -0.15 -0.251 -0.2 c 0.1 -0.029 0.347 0.05 0.276 -0.115 c 0.004 -0.082 -0.157 -0.258 -0.004 -0.297 c 0.132 -0.032 0.347 -0.061 0.412 -0.204 c 0.179 -0.401 -0.2 -0.29 -0.301 -0.555 c 0.021 0.057 0.555 -0.025 0.591 -0.197 c 0.05 -0.258 0.143 -0.483 0.179 -0.741 c 0 0 0 0 0 0.004 c 0 -0.1 0.029 -0.186 0.093 -0.261 c -0.036 -0.111 -0.075 -0.222 -0.104 -0.336 c -0.025 -0.132 0.154 -0.322 0.247 -0.383 c 0.347 -0.218 0.404 -0.361 0.508 -0.759 c 0.032 -0.233 -0.204 -0.759 -0.125 -0.916 c 0.111 -0.208 0.551 -1.056 0.089 -1.156 c -0.218 -0.043 -0.34 -0.175 -0.544 -0.229 c -0.204 -0.061 -0.429 0.007 -0.605 0.025 c -0.036 -0.161 -0.089 -0.154 -0.229 -0.215 c -0.376 -0.157 -0.2 0.19 -0.394 0.208 c -0.193 0.021 -0.412 -0.229 -0.258 -0.429 c 0.1 -0.136 -0.265 -0.662 -0.48 -0.644 c -0.186 0.004 -0.673 -0.039 -0.787 -0.208 c -0.143 -0.215 -0.655 -0.276 -0.709 -0.512 c -0.136 0.029 -0.297 0.118 -0.39 0.082 c -0.075 -0.025 -0.301 0.004 -0.358 -0.057 c -0.072 -0.082 -0.222 -0.193 -0.347 -0.186 c 0.011 0.064 0.082 0.032 0.115 0.097 c -0.351 0.021 -0.093 0.372 -0.161 0.379 c -0.154 0.007 -0.111 -0.322 -0.111 -0.39 c 0.043 -0.036 0.05 -0.072 0.018 -0.104 c -0.064 -0.086 -0.115 0.064 -0.161 0.082 c -0.215 0.093 -0.565 0.29 -0.512 0.576 c -0.268 0.111 0 0.458 0.047 0.666 c -0.025 0.05 -0.007 0.079 0.05 0.1 c 0.004 0.218 -0.29 0.451 -0.293 0.666 c -0.004 0.251 -0.075 0.283 0.154 0.404 c 0 0.15 -0.161 0.222 -0.118 0.39 c 0.047 0.183 0.204 0.19 0.283 0.297 c 0.157 0.229 0.358 0.472 0.555 0.687 c 0.236 0.254 0.297 0.583 0.68 0.655 c 0.301 0.039 0.637 0.225 0.755 0.508 c 0.111 0.258 0.15 0.523 0.24 0.787 c 0.043 0.276 0.018 0.755 0.186 0.977 c 0.157 0.383 0.183 0.623 0.183 1.009 c 0 0.197 0.115 0.222 0.179 0.361 c 0.05 0.104 0 0.2 0.061 0.29 c -3.038 -1.825 -5.071 -5.15 -5.071 -8.954 c 0 -0.633 0.079 -1.245 0.186 -1.847 c -0.004 0 -0.004 -0.018 -0.011 -0.018 c 0.004 -0.021 0.014 -0.043 0.018 -0.068 c -0.004 0.029 -0.004 0.057 -0.007 0.086 c 0.075 0.032 0.107 0.315 0.208 0.34 c 0.086 0.021 0.175 -0.225 0.225 -0.032 c 0.072 0.018 0.039 0.354 0.064 0.422 c 0.072 0.179 0.204 0.276 0.344 0.322 c -0.043 0.15 -0.018 0.279 -0.007 0.433 c 0.011 0.168 -0.129 0.34 -0.086 0.497 c 0.014 0.007 0.025 0.011 0.039 0.014 c 0 -0.018 0.011 -0.054 0.029 -0.075 c 0.157 0.054 0.054 0.859 0.265 0.945 c 0.104 0.043 0.125 -0.472 0.344 -0.394 c 0.107 0.039 0.018 0.315 0.029 0.39 c 0 0.004 0.175 -0.157 0.19 -0.179 c -0.036 -0.132 -0.043 -0.487 -0.276 -0.387 c -0.49 0.211 -0.279 -0.644 -0.179 -0.902 c 0.115 -0.293 0.537 -0.834 -0.032 -0.87 c -0.472 -0.029 0.072 -0.469 0.132 -0.573 c 0.047 -0.054 0.086 -0.097 0.129 -0.19 c 0.064 -0.14 0.183 -0.24 0.251 -0.379 c -0.533 -0.097 -0.555 0.598 -1.045 0.49 c -0.361 -0.075 0.419 -1.374 0.458 -1.467 c 0 0 0.004 0 0.007 0 c 0.154 -0.268 0.347 -0.39 0.608 -0.533 c 0.179 -0.097 0.301 0.172 0.433 0.111 c -0.021 -0.043 0.039 -0.086 0.086 -0.161 c -0.029 0.014 -0.021 0.014 -0.05 -0.004 c 0.075 -0.025 0.147 -0.007 0.215 -0.025 c -0.021 0.043 0.426 0.115 0.429 0.125 c 0.018 0.068 -0.286 0.837 -0.125 0.859 c 0.179 0.021 0.322 -0.515 0.333 -0.633 c 0.054 -0.48 0.412 -0.651 0.812 -0.823 c 0 -0.004 -0.004 -0.004 -0.004 -0.007 c 0.097 -0.068 0.222 -0.079 0.315 -0.154 c -0.075 -0.082 0.036 -0.057 0.075 -0.115 c -0.018 -0.004 -0.036 -0.011 -0.036 -0.043 c 0.057 -0.014 0.093 -0.047 0.111 -0.097 c -0.007 0 -0.021 0 -0.029 0 c -0.011 -0.032 0.111 -0.24 0.14 -0.268 c -0.004 0.014 -0.054 0.218 -0.061 0.215 c 0.14 0.004 0.165 -0.229 0.236 -0.272 c -0.025 -0.057 0.372 -0.2 0.462 -0.222 c -0.021 -0.029 -0.115 -0.004 -0.147 -0.004 c 0.157 -0.072 0.372 -0.061 0.519 -0.115 c -0.236 0.004 0.193 -0.351 0.333 -0.319 c 0.136 0.029 0.415 -0.165 0.583 -0.168 c -0.032 0.047 -0.021 0.064 0.039 0.054 c -0.222 0.011 -0.401 0.297 -0.233 0.208 c 0.1 -0.054 0.558 -0.125 0.598 -0.211 c 0.025 -0.05 -0.505 -0.014 -0.268 -0.308 c -0.021 0 -0.061 -0.011 -0.1 -0.011 c 0.068 -0.043 0.193 -0.021 0.236 -0.1 c 0.054 -0.093 -0.608 0.057 -0.641 0.061 c 0.272 -0.218 1.585 -0.172 1.457 -0.612 c -0.039 0.011 -0.465 0.125 -0.476 0.072 c 0.097 -0.029 0.34 -0.05 0.394 -0.1 c 0.032 -0.039 -0.34 -0.004 -0.268 -0.129 l 0.004 -0.007 c -0.086 0 -0.118 -0.032 -0.154 -0.054 c 0.2 -0.064 -0.004 -0.354 -0.143 -0.29 c 0.011 0.014 -0.007 0.057 0.014 0.064 c -0.025 -0.011 -0.047 -0.025 -0.061 -0.047 c 0.011 -0.018 0.032 -0.007 0.047 -0.018 c -0.018 -0.018 -0.061 -0.018 -0.021 -0.086 c -0.107 0.197 -0.544 0.072 -0.691 0 c -0.508 -0.243 -0.354 0.093 -0.734 0.179 c 0.007 0.186 0.265 0.186 -0.089 0.326 c -0.283 0.115 -0.115 0.175 -0.261 0.336 c -0.082 0 -0.093 -0.011 -0.122 -0.021 c 0 0 0.004 0 0 0 c -0.025 0 -0.047 -0.004 -0.075 -0.011 c 0.004 0.007 0.054 0.007 0.068 0.011 c 0.021 -0.032 -0.032 -0.036 -0.072 -0.029 c 0.011 -0.057 0.157 -0.147 0.061 -0.215 c -0.297 0.007 -0.261 -0.208 -0.633 -0.193 c 0.104 -0.104 0.118 -0.165 -0.036 -0.14 c 0.2 -0.136 0.587 -0.254 0.744 -0.397 c -0.014 -0.011 -0.029 -0.021 -0.047 -0.025 c 0.183 0.014 0.49 -0.018 0.612 -0.122 c -0.086 -0.007 -0.197 0.004 -0.183 -0.043 c 0.082 0.029 0.19 0.029 0.297 0.011 c -0.097 0.039 -0.229 0.115 -0.279 0.154 c 0.025 0 0.089 -0.011 0.129 -0.004 c -0.025 0.018 -0.05 0.036 -0.014 0.032 c 0.147 -0.007 0.387 -0.032 0.53 -0.075 c -0.007 -0.018 -0.075 -0.007 -0.104 -0.025 c -0.007 -0.004 0.014 -0.018 0.011 -0.029 c -0.014 -0.036 -0.154 -0.057 -0.19 -0.043 c 0 -0.011 0 -0.018 0 -0.025 c 0.036 -0.007 0.068 -0.018 0.104 -0.025 c -0.014 0.007 -0.004 0.021 0.032 0.021 c -0.004 -0.011 0.011 -0.032 -0.029 -0.021 c 0.2 -0.057 0.394 -0.15 0.487 -0.233 c -0.05 0 -0.107 -0.021 -0.157 -0.029 c 0.072 0 0.132 -0.004 0.168 -0.004 c -0.05 0.039 0.186 -0.021 0.247 0.011 c 0 0 -0.004 0 -0.007 0 c 0.018 0.004 0.039 0.011 0.057 0.029 c -0.025 0.007 -0.05 0.014 -0.075 0.018 c 0.004 -0.004 0.15 0 0.183 0.018 c -0.061 -0.004 -0.118 0.007 -0.168 0.043 c 0 0 0.197 0.057 0.2 -0.021 c 0.125 0.089 -0.247 0.157 -0.147 0.193 c -0.132 0.061 -0.379 0.018 -0.472 0.143 c -0.014 0.021 0.412 -0.025 0.451 -0.004 c 0.097 0.05 0.29 0.165 0.451 0.129 c 0.125 -0.029 -0.115 -0.147 -0.115 -0.143 c 0.222 -0.039 0.211 0.072 0.268 -0.118 c -0.075 0.011 -0.097 -0.064 -0.15 -0.057 c 0.014 -0.036 0.032 -0.014 0.043 -0.039 c 0.1 0.014 0.308 0.072 0.326 -0.057 c 0 -0.007 -0.276 -0.1 -0.293 -0.111 c 0.025 -0.014 0.036 -0.018 0.068 -0.025 c -0.021 -0.011 -0.05 -0.014 -0.075 -0.011 c 0.018 -0.011 0.043 -0.011 0.072 -0.014 c -0.021 -0.021 -0.047 -0.029 -0.072 -0.021 c 0.004 -0.007 0.004 -0.011 0.007 -0.018 c -0.225 -0.011 -0.426 -0.079 -0.669 -0.082 c 0.011 0 0.039 -0.047 0.036 -0.054 c -0.036 -0.097 -0.598 0.093 -0.465 0.036 c -0.064 0 0.14 -0.054 0.183 -0.061 c -0.118 -0.007 -0.225 -0.007 -0.347 0.018 c 0.043 -0.014 0.082 -0.021 0.122 -0.043 c -0.251 0.011 -0.344 0.007 -0.53 0.14 c 0.061 0 0.118 -0.011 0.168 -0.047 c -0.011 0 -0.021 0 -0.032 0 c 0.064 -0.029 0.175 -0.021 0.236 -0.043 c -0.039 0.021 -0.265 0.047 -0.229 0.115 c 0 0 0.157 0.004 0.175 0.011 c -0.05 0.043 -0.115 0.05 -0.186 0.018 c -0.061 0.05 0.451 0.057 0.455 0.057 c -0.064 0.014 -0.315 0.243 -0.401 0.161 c -0.011 -0.057 0.018 -0.079 0.089 -0.079 c 0.061 -0.05 -0.247 0.021 -0.229 0.021 c 0.075 -0.064 -0.064 -0.036 0.05 -0.072 c -0.025 -0.011 -0.104 0.004 -0.111 -0.014 c 0.039 -0.011 0.075 -0.021 0.111 -0.036 c 0.082 -0.061 -0.268 -0.054 -0.365 0.018 c -0.025 0.018 0.129 0.032 0.1 0.054 c -0.025 0.014 -0.05 0.029 -0.075 0.043 c 0.029 -0.007 0.047 -0.007 0.075 -0.014 c -0.039 0.057 -0.183 0.036 -0.272 0.104 c -0.057 0.007 -0.047 0 -0.025 -0.011 c -0.129 0.032 -0.48 -0.011 -0.698 -0.018 c -0.082 0.068 -0.225 0.079 -0.276 0.064 c -0.161 -0.054 -0.297 -0.007 -0.422 0.068 c -0.111 0.093 -0.229 0.179 -0.336 0.276 c 0.025 -0.021 0.043 -0.054 0.072 -0.075 c 0.079 -0.072 0.168 -0.143 0.265 -0.2 c 0.029 -0.025 0.061 -0.05 0.089 -0.075 c -0.018 0 -0.032 0.004 -0.047 0.007 c 0.021 -0.018 0.047 -0.036 0.075 -0.057 c 0.014 0 0.007 0.014 0.011 0.021 c 0.014 -0.014 0.032 -0.029 0.05 -0.043 c -0.014 0 -0.018 0 -0.032 0 c 0.021 -0.014 0.039 -0.007 0.057 -0.018 c 0.032 -0.025 0.061 -0.054 0.093 -0.075 c -0.007 0 -0.021 0 -0.029 0 c 0.029 -0.025 0.143 -0.115 0.222 -0.161 c 0.007 -0.004 0.011 -0.011 0.018 -0.014 c -0.004 0 -0.011 0 -0.014 0 c 0.018 -0.014 0.039 -0.029 0.061 -0.043 v 0.004 c 0.036 -0.025 0.079 -0.047 0.115 -0.072 c 0.043 0 0.079 0 0.122 -0.007 c 0.011 -0.007 0.032 -0.014 0.05 -0.014 v 0.004 c 0.186 -0.043 0.458 0.039 0.63 -0.061 c 0.018 -0.011 -0.222 0.004 -0.104 -0.054 c -0.021 0 -0.243 0.039 -0.14 0.043 c -0.011 0.011 -0.029 0.014 -0.05 0.018 c 0.014 -0.004 0.029 0.007 0.043 0 c -0.025 0 -0.036 0 -0.043 0 l 0 0 c -0.115 0.018 -0.222 -0.029 -0.329 -0.018 c -0.011 0.004 -0.007 0.007 0 0.007 c -0.021 0 -0.043 0.004 -0.064 0.011 c 0.029 -0.018 0.061 -0.036 0.089 -0.057 h 0.004 c 0.061 -0.004 0.075 -0.011 0.039 -0.021 c -0.007 0 -0.011 0.007 -0.021 0.007 c 1.664 -1.124 3.643 -1.822 5.801 -1.822 c 2.054 0 3.969 0.598 5.59 1.625 c -0.147 -0.068 -0.286 -0.115 -0.419 -0.129 c 0.029 -0.097 -0.301 -0.036 -0.208 -0.021 c -0.132 0.021 -0.286 -0.021 -0.408 0.021 c 0.014 0.004 0.007 0.004 0.029 0.011 c -0.043 -0.007 -0.089 0 -0.14 0.014 c 0.036 0 0.036 0 0.061 0.004 c -0.007 0 -0.279 -0.021 -0.286 0.011 c 0 0 0.039 0.004 0.054 0.007 c -0.007 0 -0.05 0.007 -0.064 0.014 c 0.082 0.004 0.111 -0.011 0.197 -0.011 c -0.021 0.064 -0.626 0.311 -0.705 0.315 c 0.036 0.004 0.054 0.011 0.089 0.018 c -0.118 -0.014 -0.644 0.089 -0.369 0.276 c -0.025 0.011 -0.047 0.029 -0.061 0.054 c 0.05 -0.007 0.05 -0.007 0.1 -0.004 c 0.007 0.064 -0.061 0.021 -0.061 0.064 c 0.014 0.14 0.397 0.039 0.447 0.014 c 0.132 -0.082 0.168 0.004 0.243 0.118 c 0.036 0.047 0.154 0.286 0.218 0.297 c 0.072 0.004 0.376 -0.075 0.372 -0.172 c -0.261 -0.047 0.15 -0.215 0.147 -0.236 c -0.032 -0.122 -0.197 -0.082 -0.218 -0.218 c -0.025 -0.129 0.394 -0.093 0.369 -0.175 c 0.036 -0.05 0.336 -0.208 0.404 -0.025 c 0.004 0.014 -0.372 0.15 -0.401 0.147 c 0.039 0.05 0.032 0.104 0.107 0.125 c -0.14 0.168 0.773 0.147 0.845 0.222 c -0.19 0.072 -0.401 -0.068 -0.58 0.025 c -0.057 0.029 0.15 0.107 0.15 0.168 c 0 -0.072 -0.472 0.036 -0.433 0.293 c -0.047 0 -0.097 -0.004 -0.143 -0.004 c 0 -0.004 0.004 -0.018 0.011 -0.029 c -0.118 -0.043 -0.598 0.125 -0.576 -0.021 c -0.125 -0.021 -0.272 -0.011 -0.404 -0.025 c -0.007 0.032 0 -0.011 0.007 -0.068 c 0.029 0.011 0.075 -0.004 0.079 0.036 c 0.011 -0.061 -0.021 -0.075 -0.068 -0.086 c 0.007 -0.05 0.021 -0.093 0.036 -0.089 c -0.014 -0.032 -0.057 -0.057 -0.064 -0.129 c -0.251 0.097 -0.251 0.097 -0.118 0.329 c 0.064 0.104 -0.183 0.093 -0.251 0.086 c -0.229 -0.018 -0.204 0.19 -0.397 0.229 c -0.229 0.05 -0.272 0.15 -0.537 0.129 c 0 0.047 0.021 0.075 0.025 0.115 c -0.039 0.007 -0.379 -0.061 -0.379 0.014 c 0 0.111 0.583 0.172 0.455 0.383 c 0 0 0.007 0 0.007 -0.004 c 0.014 0.293 -0.068 0.218 -0.279 0.243 c -0.193 -0.014 -0.372 -0.064 -0.565 -0.079 c -0.222 -0.014 -0.129 0.129 -0.129 0.236 c 0 0.075 -0.15 0.644 0.021 0.659 c 0.168 0.011 0.225 -0.05 0.336 0.111 c 0.079 0.129 0.34 -0.072 0.48 -0.014 c 0.118 -0.047 0.247 -0.143 0.329 -0.258 c -0.272 -0.122 0.358 -0.39 0.365 -0.415 c -0.118 -0.304 0.336 -0.064 0.476 -0.136 c 0.283 -0.143 0.322 -0.061 0.53 0.161 c -0.043 -0.089 0.923 0.666 0.623 0.637 c 0.021 0.129 0.183 -0.122 0.186 -0.097 c -0.036 -0.211 -0.147 -0.183 0.143 -0.107 c -0.004 -0.175 -0.308 -0.14 -0.336 -0.297 c -0.204 -0.018 -0.519 -0.286 -0.54 -0.48 c -0.018 -0.122 0.591 0.297 0.641 0.301 c 0.029 0.14 0.322 0.168 0.358 0.379 c 0.025 0.125 0.276 0.372 0.39 0.383 c -0.068 0.129 0.029 0.204 0.175 0.222 c -0.021 -0.014 -0.064 -0.179 -0.068 -0.208 c 0.068 0.057 0.136 0.097 0.215 0.061 c -0.129 -0.107 -0.19 -0.215 -0.301 -0.322 c -0.021 -0.097 0.168 0.036 0.168 0.036 c 0.004 -0.032 0 -0.057 -0.021 -0.089 c 0.111 -0.018 0.132 -0.068 0.243 0.011 c 0.154 0.111 0.129 -0.032 0.268 -0.011 c 0 0.018 0.039 0.043 0.047 0.057 c -0.061 0.021 -0.404 -0.036 -0.372 0.097 c 0.021 0.093 0.168 0.032 0.021 0.183 c 0.132 0.068 0.208 0.147 0.319 0.24 c -0.004 0.007 -0.018 0.018 -0.032 0.021 c 0.379 0.036 0.687 0.19 1.063 0.089 c 0.047 0.175 0.007 0.308 -0.004 0.483 c -0.004 0.05 0.011 0.222 -0.032 0.258 c -0.018 0.011 0.157 0.336 0.161 0.404 c 0.018 0.458 0.701 0.712 0.802 1.131 c 0.057 0.254 0.265 0.404 0.412 0.605 c 0.204 0.265 0.272 0.462 0.415 0.748 c 0.261 0.515 0.605 0.14 1.016 0 c -0.029 -0.183 -0.029 -0.372 -0.068 -0.555 c 0.039 0.179 0.089 0.351 0.118 0.53 c -0.018 0.004 -0.036 0.018 -0.061 0.021 c 0.075 0.494 0.175 0.981 0.175 1.492 C 68.335 36.603 67.912 38.235 67.164 39.67 Z" />
		<path style="fill: #ffffff;" d="M 52.538 26.711 c -0.175 0.029 0.157 0.029 0.208 0.014 C 52.799 26.607 52.47 26.725 52.538 26.711 Z" />
		<rect style="fill: #ffffff;" x="0" y="62.292" width="38.594" height="25.088" />
		<polygon style="fill: #ffffff;" points="13.507,89.595 9.649,93.456 28.946,93.456 25.084,89.595" />
		<rect style="fill: #ffffff;" x="77.192" y="62.292" width="38.591" height="25.088" />
		<polygon style="fill: #ffffff;" points="90.699,89.595 86.837,93.456 106.134,93.456 102.276,89.595" />
		<path style="fill: #ffffff;" d="M 33.799 43.002 c 0.458 0 0.916 -0.175 1.267 -0.523 l 0.39 -0.39 c 0.698 -0.698 0.698 -1.832 0 -2.53 c -0.698 -0.698 -1.832 -0.698 -2.53 0 l -0.39 0.39 c -0.698 0.698 -0.698 1.832 0 2.53 C 32.882 42.826 33.341 43.002 33.799 43.002 Z" />
		<path style="fill: #ffffff;" d="M 29.547 47.253 c 0.458 0 0.916 -0.175 1.267 -0.523 l 0.723 -0.723 c 0.698 -0.698 0.698 -1.832 0 -2.53 c -0.698 -0.698 -1.832 -0.698 -2.53 0 l -0.723 0.723 c -0.698 0.698 -0.698 1.832 0 2.53 C 28.631 47.078 29.089 47.253 29.547 47.253 Z" />
		<path style="fill: #ffffff;" d="M 21.036 55.764 c 0.458 0 0.916 -0.175 1.267 -0.523 l 0.727 -0.727 c 0.698 -0.698 0.698 -1.832 0 -2.53 c -0.698 -0.698 -1.832 -0.698 -2.53 0 l -0.727 0.727 c -0.698 0.698 -0.698 1.832 0 2.53 C 20.12 55.589 20.578 55.764 21.036 55.764 Z" />
		<path style="fill: #ffffff;" d="M 25.292 51.509 c 0.458 0 0.916 -0.175 1.267 -0.523 l 0.727 -0.727 c 0.698 -0.698 0.698 -1.832 0 -2.53 c -0.698 -0.698 -1.832 -0.698 -2.53 0 l -0.727 0.727 c -0.698 0.698 -0.698 1.832 0 2.53 C 24.376 51.333 24.834 51.509 25.292 51.509 Z" />
		<path style="fill: #ffffff;" d="M 17.118 59.679 c 0.458 0 0.916 -0.175 1.267 -0.523 l 0.39 -0.39 c 0.698 -0.698 0.698 -1.832 0 -2.53 c -0.698 -0.698 -1.832 -0.698 -2.53 0 l -0.39 0.39 c -0.698 0.698 -0.698 1.832 0 2.53 C 16.205 59.507 16.66 59.679 17.118 59.679 Z" />
		<path style="fill: #ffffff;" d="M 80.717 42.476 c 0.354 0.351 0.809 0.523 1.267 0.523 c 0.455 0 0.916 -0.175 1.267 -0.523 c 0.698 -0.698 0.698 -1.832 0 -2.53 l -0.39 -0.39 c -0.694 -0.698 -1.832 -0.698 -2.53 0 c -0.694 0.698 -0.694 1.832 0 2.53 L 80.717 42.476 Z" />
		<path style="fill: #ffffff;" d="M 92.757 54.515 l 0.727 0.727 c 0.351 0.351 0.809 0.523 1.267 0.523 c 0.458 0 0.916 -0.175 1.267 -0.523 c 0.698 -0.698 0.698 -1.832 0 -2.53 l -0.727 -0.726 c -0.698 -0.698 -1.836 -0.698 -2.53 0 C 92.062 52.682 92.055 53.813 92.757 54.515 Z" />
		<path style="fill: #ffffff;" d="M 88.501 50.26 l 0.727 0.727 c 0.351 0.351 0.812 0.523 1.267 0.523 c 0.462 0 0.92 -0.175 1.267 -0.523 c 0.698 -0.698 0.698 -1.832 0 -2.53 l -0.727 -0.727 c -0.694 -0.698 -1.832 -0.698 -2.527 0 C 87.807 48.427 87.8 49.562 88.501 50.26 Z" />
		<path style="fill: #ffffff;" d="M 84.25 46.008 l 0.719 0.723 c 0.354 0.351 0.812 0.523 1.267 0.523 c 0.455 0 0.916 -0.175 1.267 -0.523 c 0.698 -0.698 0.698 -1.832 0 -2.53 l -0.723 -0.723 c -0.698 -0.698 -1.836 -0.698 -2.53 0 S 83.548 45.306 84.25 46.008 Z" />
		<path style="fill: #ffffff;" d="M 97.008 58.767 l 0.39 0.39 c 0.351 0.351 0.812 0.523 1.267 0.523 c 0.462 0 0.916 -0.175 1.267 -0.523 c 0.694 -0.698 0.694 -1.832 0 -2.53 l -0.387 -0.39 c -0.698 -0.698 -1.836 -0.698 -2.53 0 C 96.314 56.934 96.307 58.069 97.008 58.767 Z" />
	</g>
</g>
<g style="fill: #ffffff;">
</g>
<g style="fill: #ffffff;">
</g>
<g style="fill: #ffffff;">
</g>
<g style="fill: #ffffff;">
</g>
<g style="fill: #ffffff;">
</g>
<g style="fill: #ffffff;">
</g>
<g style="fill: #ffffff;">
</g>
<g style="fill: #ffffff;">
</g>
<g style="fill: #ffffff;">
</g>
<g style="fill: #ffffff;">
</g>
<g style="fill: #ffffff;">
</g>
<g style="fill: #ffffff;">
</g>
<g style="fill: #ffffff;">
</g>
<g style="fill: #ffffff;">
</g>
<g style="fill: #ffffff;">
</g>
</svg>