<?xml version="1.0" encoding="utf-8"?>
<!-- Generator: Adobe Illustrator 16.0.0, SVG Export Plug-In . SVG Version: 6.00 Build 0)  -->
<!DOCTYPE svg PUBLIC "-//W3C//DTD SVG 1.1//EN" "http://www.w3.org/Graphics/SVG/1.1/DTD/svg11.dtd">
<svg version="1.1" id="Layer_1" xmlns="http://www.w3.org/2000/svg" xmlns:xlink="http://www.w3.org/1999/xlink" x="0px" y="0px"
	 width="26px" height="26px" viewBox="0 0 26 26" enable-background="new 0 0 26 26" xml:space="preserve">
<path fill="#FFFFFF" d="M13,0C5.82,0,0,5.82,0,13c0,7.181,5.82,13,13,13s13-5.816,13-13S20.181,0,13,0z M19.068,13.825
	c0,0.573-0.47,1.039-1.039,1.039h-3.121v3.121c0,0.573-0.469,1.039-1.039,1.039h-1.734c-0.573,0-1.039-0.47-1.039-1.039v-3.121
	H7.976c-0.573,0-1.039-0.469-1.039-1.039v-1.734c0-0.573,0.47-1.039,1.039-1.039h3.121V7.931c0-0.573,0.47-1.039,1.039-1.039h1.734
	c0.573,0,1.039,0.469,1.039,1.039v3.121h3.121c0.573,0,1.039,0.469,1.039,1.039V13.825z"/>
</svg>
