<?xml version="1.0" encoding="utf-8"?>
<!-- Generator: Adobe Illustrator 16.0.0, SVG Export Plug-In . SVG Version: 6.00 Build 0)  -->
<!DOCTYPE svg PUBLIC "-//W3C//DTD SVG 1.1//EN" "http://www.w3.org/Graphics/SVG/1.1/DTD/svg11.dtd">
<svg version="1.1" id="Layer_1" xmlns="http://www.w3.org/2000/svg" xmlns:xlink="http://www.w3.org/1999/xlink" x="0px" y="0px"
	 width="46.85px" height="43.379px" viewBox="0 0 46.85 43.379" enable-background="new 0 0 46.85 43.379" xml:space="preserve">
<path fill="#81709C" d="M27.156,5.992c0,0.722-0.583,1.309-1.302,1.309H10.324c-0.718,0-1.301-0.586-1.301-1.309
	c0-0.723,0.583-1.309,1.301-1.309h15.529C26.573,4.683,27.156,5.27,27.156,5.992z M25.854,10.005H10.324
	c-0.718,0-1.301,0.586-1.301,1.309c0,0.722,0.583,1.309,1.301,1.309h15.529c0.719,0,1.302-0.587,1.302-1.309
	C27.156,10.591,26.573,10.005,25.854,10.005z M46.787,17.771l-5.206,23.558c-0.265,1.197-1.322,2.05-2.539,2.05h-5.206H7.808H2.603
	C1.165,43.379,0,42.207,0,40.761V9.351c0-1.445,1.165-2.617,2.603-2.617h1.301V1.498c0-0.722,0.582-1.309,1.301-1.309h26.027
	c0.718,0,1.302,0.586,1.302,1.309v5.235h1.302c1.438,0,2.603,1.172,2.603,2.617v2.618h2.604c1.437,0,2.602,1.172,2.602,2.618h2.604
	c0.788,0,1.537,0.36,2.029,0.98C46.771,16.185,46.96,16.996,46.787,17.771z M3.905,9.351H2.603v31.41h1.301V9.351z M32.534,11.968
	h1.302V9.351h-1.302V11.968z M13.014,14.586h15.617c0-1.446,1.165-2.618,2.602-2.618V1.498H5.206v39.263h0.002
	c0-0.189,5.265-24.125,5.265-24.125C10.737,15.438,11.795,14.586,13.014,14.586z M35.861,36.281l-4.106-3.372
	c-0.358-0.294-0.804-0.396-1.227-0.332l-0.478-0.393c0.989-1.505,1.433-3.293,1.25-5.114c-0.209-2.086-1.214-3.967-2.828-5.293
	c-1.394-1.142-3.146-1.771-4.938-1.771c-2.355,0-4.562,1.052-6.052,2.887c-2.723,3.353-2.226,8.313,1.109,11.049
	c1.39,1.145,3.144,1.771,4.936,1.771c1.917,0,3.729-0.707,5.142-1.955l0.541,0.44c0.021,0.431,0.208,0.851,0.568,1.145l4.104,3.372
	c0.291,0.24,0.641,0.354,0.986,0.354c0.454,0,0.9-0.197,1.209-0.577C36.63,37.818,36.529,36.83,35.861,36.281z M26.826,23.805
	c-0.969-0.794-2.133-1.18-3.29-1.18c-1.508,0-3.005,0.656-4.034,1.924c-1.819,2.241-1.487,5.538,0.738,7.366
	c0.969,0.794,2.134,1.18,3.29,1.18c1.507,0,3.006-0.656,4.035-1.925C29.385,28.932,29.051,25.634,26.826,23.805z"/>
</svg>
