<?xml version="1.0" encoding="utf-8"?>
<!-- Generator: Adobe Illustrator 16.0.0, SVG Export Plug-In . SVG Version: 6.00 Build 0)  -->
<!DOCTYPE svg PUBLIC "-//W3C//DTD SVG 1.1//EN" "http://www.w3.org/Graphics/SVG/1.1/DTD/svg11.dtd">
<svg version="1.1" id="Layer_1" xmlns="http://www.w3.org/2000/svg" xmlns:xlink="http://www.w3.org/1999/xlink" x="0px" y="0px"
	 width="36.362px" height="43.379px" viewBox="0 0 36.362 43.379" enable-background="new 0 0 36.362 43.379" xml:space="preserve">
<path fill="#6d7993" d="M36.095,8.991l-8.596-8.699c-0.171-0.173-0.403-0.27-0.646-0.27H0.912C0.408,0.022,0,0.436,0,0.945v41.511
	c0,0.511,0.408,0.923,0.912,0.923H35.45c0.504,0,0.912-0.412,0.912-0.923V9.644C36.363,9.399,36.266,9.164,36.095,8.991z
	 M27.765,3.172l5.484,5.549h-5.484V3.172z M1.823,41.533V1.868h24.118v7.776c0,0.51,0.408,0.923,0.912,0.923h7.686v30.967H1.823
	L1.823,41.533z"/>
<path fill="#6d7993" d="M11.319,15.196H4.912C4.409,15.196,4,14.784,4,14.274V7.791c0-0.509,0.409-0.922,0.912-0.922h6.406
	c0.504,0,0.913,0.413,0.913,0.922v6.483C12.231,14.784,11.823,15.196,11.319,15.196z M5.823,13.352h4.584V8.713H5.823V13.352z"/>
<path fill="#6d7993" d="M22.073,10.197h-7.824c-0.504,0-0.912-0.413-0.912-0.923c0-0.509,0.408-0.922,0.912-0.922h7.824
	c0.503,0,0.911,0.413,0.911,0.922C22.984,9.784,22.575,10.197,22.073,10.197z"/>
<path fill="#6d7993" d="M20.12,13.713h-5.872c-0.504,0-0.912-0.413-0.912-0.923c0-0.509,0.408-0.922,0.912-0.922h5.872
	c0.503,0,0.911,0.413,0.911,0.922C21.031,13.3,20.623,13.713,20.12,13.713z"/>
<path fill="#6d7993" d="M11.319,26.802H4.912C4.409,26.802,4,26.389,4,25.879v-6.483c0-0.51,0.409-0.922,0.912-0.922h6.406
	c0.504,0,0.913,0.413,0.913,0.922v6.483C12.231,26.389,11.823,26.802,11.319,26.802z M5.823,24.957h4.584v-4.639H5.823V24.957z"/>
<path fill="#6d7993" d="M26.713,21.802H14.248c-0.504,0-0.912-0.413-0.912-0.922c0-0.509,0.408-0.923,0.912-0.923h12.465
	c0.504,0,0.913,0.414,0.913,0.923S27.217,21.802,26.713,21.802z"/>
<path fill="#6d7993" d="M22.543,25.318h-8.295c-0.504,0-0.912-0.413-0.912-0.923s0.408-0.923,0.912-0.923h8.295
	c0.504,0,0.911,0.413,0.911,0.923S23.047,25.318,22.543,25.318z"/>
<path fill="#6d7993" d="M11.319,38.407H4.912C4.409,38.407,4,37.994,4,37.484v-6.482c0-0.51,0.409-0.924,0.912-0.924h6.406
	c0.504,0,0.913,0.414,0.913,0.924v6.482C12.231,37.994,11.823,38.407,11.319,38.407z M5.823,36.563h4.584v-4.639H5.823V36.563z"/>
<path fill="#6d7993" d="M28.238,33.408H14.248c-0.504,0-0.912-0.414-0.912-0.923c0-0.51,0.408-0.923,0.912-0.923h13.989
	c0.504,0,0.912,0.413,0.912,0.923C29.15,32.994,28.741,33.408,28.238,33.408z"/>
<path fill="#6d7993" d="M25.992,36.924H14.248c-0.504,0-0.912-0.414-0.912-0.923c0-0.51,0.408-0.923,0.912-0.923h11.744
	c0.503,0,0.911,0.413,0.911,0.923C26.904,36.51,26.495,36.924,25.992,36.924z"/>
</svg>
