<?xml version="1.0" encoding="utf-8"?>
<!-- Generator: Adobe Illustrator 16.0.0, SVG Export Plug-In . SVG Version: 6.00 Build 0)  -->
<!DOCTYPE svg PUBLIC "-//W3C//DTD SVG 1.1//EN" "http://www.w3.org/Graphics/SVG/1.1/DTD/svg11.dtd">
<svg version="1.1" id="Capa_1" xmlns="http://www.w3.org/2000/svg" xmlns:xlink="http://www.w3.org/1999/xlink" x="0px" y="0px"
	 width="586.666px" height="800px" viewBox="0 0 586.666 800" enable-background="new 0 0 586.666 800" xml:space="preserve">
<g id="Delete__x2F__Trash">
	<path fill="#B64040" d="M81.414,745.701c0,0,11.916,54.299,73.252,54.299H432c61.333,0,73.249-54.299,73.249-54.299l54.75-532.368
		H26.666L81.414,745.701z M400,293.335c0-14.729,11.938-26.667,26.666-26.667c14.729,0,26.669,11.937,26.669,26.667l-26.669,400
		c0,14.729-11.938,26.666-26.666,26.666c-14.726,0-26.666-11.939-26.666-26.666L400,293.335z M266.667,293.335
		c0-14.729,11.939-26.667,26.666-26.667c14.729,0,26.666,11.937,26.666,26.667v400c0,14.729-11.938,26.666-26.666,26.666
		s-26.666-11.939-26.666-26.666V293.335L266.667,293.335z M160,266.667c14.729,0,26.666,11.937,26.666,26.666l26.669,400
		c0,14.73-11.939,26.666-26.669,26.666c-14.727,0-26.666-11.939-26.666-26.666l-26.666-399.997
		C133.334,278.605,145.273,266.667,160,266.667z M543.998,106.708H426.666V53.334C426.666,12.877,413.582,0,373.334,0H213.332
		C176.415,0,160,17.881,160,53.334v53.377H42.668C19.086,106.711,0,124.61,0,146.73c0,22.122,19.086,40.021,42.668,40.021h501.33
		c23.582,0,42.668-17.899,42.668-40.021C586.666,124.61,567.58,106.708,543.998,106.708z M373.334,106.708H213.335l0.003-53.377
		h159.999v53.377H373.334z"/>
</g>
</svg>
