<?xml version="1.0" encoding="utf-8"?>
<!-- Generator: Adobe Illustrator 16.0.0, SVG Export Plug-In . SVG Version: 6.00 Build 0)  -->
<!DOCTYPE svg PUBLIC "-//W3C//DTD SVG 1.1//EN" "http://www.w3.org/Graphics/SVG/1.1/DTD/svg11.dtd">
<svg version="1.1" id="Capa_1" xmlns="http://www.w3.org/2000/svg" xmlns:xlink="http://www.w3.org/1999/xlink" x="0px" y="0px"
	 width="586.666px" height="800px" viewBox="18.002 0 586.666 800" enable-background="new 18.002 0 586.666 800"
	 xml:space="preserve">
<g id="Delete__x2F__Trash">
	<path fill="#555555" d="M99.416,745.702c0,0,11.916,54.298,73.252,54.298h277.334c61.332,0,73.248-54.298,73.248-54.298
		L578,213.334H44.668L99.416,745.702z M418.002,293.336c0-14.729,11.938-26.667,26.666-26.667s26.668,11.937,26.668,26.667
		l-26.668,400c0,14.729-11.939,26.666-26.666,26.666s-26.666-11.939-26.666-26.666L418.002,293.336z M284.668,293.336
		c0-14.729,11.939-26.667,26.666-26.667c14.729,0,26.666,11.937,26.666,26.667v400c0,14.729-11.938,26.666-26.666,26.666
		s-26.666-11.939-26.666-26.666V293.336L284.668,293.336z M178.002,266.667c14.729,0,26.666,11.937,26.666,26.666l26.668,400
		c0,14.729-11.939,26.666-26.668,26.666c-14.727,0-26.666-11.94-26.666-26.666l-26.666-399.997
		C151.336,278.606,163.275,266.667,178.002,266.667z M562,106.709H444.668V53.335C444.668,12.878,431.584,0,391.336,0H231.334
		c-36.918,0-53.332,17.882-53.332,53.335v53.377H60.67c-23.582,0-42.668,17.899-42.668,40.019c0,22.122,19.086,40.021,42.668,40.021
		H562c23.582,0,42.668-17.899,42.668-40.021C604.668,124.611,585.582,106.709,562,106.709z M391.336,106.709h-160l0.004-53.377
		h159.998v53.377H391.336z"/>
</g>
</svg>
