<?xml version="1.0" encoding="utf-8"?>
<!-- Generator: Adobe Illustrator 16.0.0, SVG Export Plug-In . SVG Version: 6.00 Build 0)  -->
<!DOCTYPE svg PUBLIC "-//W3C//DTD SVG 1.1//EN" "http://www.w3.org/Graphics/SVG/1.1/DTD/svg11.dtd">
<svg version="1.1" id="Capa_1" xmlns="http://www.w3.org/2000/svg" xmlns:xlink="http://www.w3.org/1999/xlink" x="0px" y="0px"
	 width="586.666px" height="800px" viewBox="386.667 0 586.666 800" enable-background="new 386.667 0 586.666 800"
	 xml:space="preserve">
<g id="Delete__x2F__Trash">
	<path fill="#FFFFFF" d="M468.081,745.702c0,0,11.916,54.298,73.252,54.298h277.334c61.333,0,73.249-54.298,73.249-54.298
		l54.75-532.368H413.333L468.081,745.702z M786.667,293.336c0-14.729,11.938-26.667,26.666-26.667
		c14.729,0,26.669,11.937,26.669,26.667l-26.669,400c0,14.729-11.939,26.666-26.666,26.666c-14.726,0-26.666-11.94-26.666-26.666
		L786.667,293.336z M653.334,293.336c0-14.729,11.939-26.667,26.666-26.667c14.729,0,26.666,11.937,26.666,26.667v400
		c0,14.729-11.937,26.666-26.666,26.666c-14.729,0-26.666-11.94-26.666-26.666V293.336L653.334,293.336z M546.667,266.667
		c14.729,0,26.666,11.937,26.666,26.666l26.669,400c0,14.729-11.94,26.666-26.669,26.666c-14.727,0-26.666-11.94-26.666-26.666
		l-26.666-399.997C520.001,278.606,531.94,266.667,546.667,266.667z M930.665,106.709H813.333V53.335
		C813.333,12.878,800.249,0,760.001,0H599.999c-36.917,0-53.332,17.882-53.332,53.335v53.377H429.335
		c-23.582,0-42.668,17.899-42.668,40.019c0,22.122,19.086,40.021,42.668,40.021h501.33c23.582,0,42.668-17.899,42.668-40.021
		C973.333,124.611,954.247,106.709,930.665,106.709z M760.001,106.709H600.002l0.003-53.377h159.999v53.377H760.001z"/>
</g>
</svg>
