<?xml version="1.0" encoding="utf-8"?>
<!-- Generator: Adobe Illustrator 16.0.0, SVG Export Plug-In . SVG Version: 6.00 Build 0)  -->
<!DOCTYPE svg PUBLIC "-//W3C//DTD SVG 1.1//EN" "http://www.w3.org/Graphics/SVG/1.1/DTD/svg11.dtd">
<svg version="1.1" id="Layer_1" xmlns="http://www.w3.org/2000/svg" xmlns:xlink="http://www.w3.org/1999/xlink" x="0px" y="0px"
	 width="93.998px" height="93.995px" viewBox="0 0 93.998 93.995" enable-background="new 0 0 93.998 93.995" xml:space="preserve">
<path fill="#FFFFFF" d="M91.47,14.631L79.344,2.531c-3.339-3.351-8.744-3.375-12.042-0.071l-9.753,9.776l24.217,24.223l9.759-9.785
	C94.844,23.372,94.818,17.974,91.47,14.631z"/>
<path fill="#FFFFFF" d="M9.794,58.955c-0.536,0.438-0.99,0.979-1.199,1.695L0.147,89.425c-0.373,1.251-0.023,2.604,0.895,3.525
	c0.688,0.677,1.601,1.044,2.536,1.044c0.333,0,0.677-0.047,1.004-0.15l28.79-8.454c0.671-0.19,1.193-0.604,1.632-1.099
	l39.475-39.125L49.198,19.892L9.794,58.955z M13.624,83.758l-3.374-3.384l4.788-16.294l12.243,2.516l2.424,12.434L13.624,83.758z"/>
</svg>
