<?xml version="1.0" encoding="utf-8"?>
<!-- Generator: Adobe Illustrator 16.0.0, SVG Export Plug-In . SVG Version: 6.00 Build 0)  -->
<!DOCTYPE svg PUBLIC "-//W3C//DTD SVG 1.1//EN" "http://www.w3.org/Graphics/SVG/1.1/DTD/svg11.dtd">
<svg version="1.1" id="Capa_1" xmlns="http://www.w3.org/2000/svg" xmlns:xlink="http://www.w3.org/1999/xlink" x="0px" y="0px"
	 width="219.337px" height="203px" viewBox="-92.037 0.15 219.337 203" enable-background="new -92.037 0.15 219.337 203"
	 xml:space="preserve">
<g>
	<path fill="#FFFFFF" d="M4.451,123.548c-5.169,0-9.477-4.135-9.477-9.476V50.321c0-5.169,4.135-9.477,9.477-9.477h8.788
		c5.169,0,9.477,4.136,9.477,9.477v63.923c0,5.17-4.134,9.478-9.477,9.478H4.451V123.548z M8.758,163.177
		c7.753,0,14.13-6.375,14.13-14.129c0-7.753-6.376-14.128-14.13-14.128s-14.129,6.375-14.129,14.128
		C-5.371,156.802,1.005,163.177,8.758,163.177z M124.199,77.2c-3.79-3.274-9.82-2.929-12.923,1.033l-5.685,7.065
		C96.976,39.121,56.313,3.8,7.552,3.8c-54.963,0-99.589,44.798-99.589,99.762c0,54.964,44.625,99.588,99.589,99.588
		c33.081,0,64.095-16.368,82.533-43.937c3.446-5.169,2.066-12.061-2.931-15.507c-5.169-3.445-12.062-2.066-15.507,2.931
		C57.174,168,33.226,180.751,7.552,180.751c-42.557,0-77.19-34.634-77.19-77.189c0-42.557,34.633-77.19,77.19-77.19
		c37.735,0,69.093,27.224,75.813,62.889l-8.615-6.892c-3.964-3.102-9.821-2.24-12.749,1.896c-2.758,3.963-1.896,9.476,1.892,12.406
		l27.054,21.364c1.895,1.55,4.649,2.239,6.892,1.896c2.238-0.344,4.65-1.38,6.202-3.274l21.365-27.05
		C128.333,85.987,127.817,80.302,124.199,77.2z"/>
</g>
</svg>
