<?xml version="1.0" encoding="utf-8"?>
<!-- Generator: Adobe Illustrator 16.0.0, SVG Export Plug-In . SVG Version: 6.00 Build 0)  -->
<!DOCTYPE svg PUBLIC "-//W3C//DTD SVG 1.1//EN" "http://www.w3.org/Graphics/SVG/1.1/DTD/svg11.dtd">
<svg version="1.1" id="Capa_1" xmlns="http://www.w3.org/2000/svg" xmlns:xlink="http://www.w3.org/1999/xlink" x="0px" y="0px"
	 width="485.569px" height="548.291px" viewBox="31.36 0 485.569 548.291" enable-background="new 31.36 0 485.569 548.291"
	 xml:space="preserve">
<g>
	<path fill="#555555" d="M486.205,196.121h-13.166v-63.525c0-0.396-0.062-0.795-0.108-1.2c-0.021-2.52-0.829-4.997-2.556-6.96
		L364.656,3.677c-0.033-0.031-0.063-0.042-0.085-0.075c-0.63-0.704-1.364-1.29-2.143-1.796c-0.229-0.154-0.461-0.283-0.702-0.419
		c-0.672-0.365-1.387-0.672-2.121-0.893c-0.2-0.052-0.379-0.134-0.577-0.186C358.23,0.118,357.401,0,356.562,0H96.757
		C84.894,0,75.256,9.649,75.256,21.502v174.613H62.092c-16.971,0-30.732,13.756-30.732,30.733V386.66
		c0,16.961,13.762,30.73,30.732,30.73h13.164V526.79c0,11.854,9.638,21.501,21.501,21.501h354.775
		c11.854,0,21.501-9.647,21.501-21.501V417.392h13.166c16.967,0,30.729-13.764,30.729-30.73V226.854
		C516.93,209.872,503.176,196.121,486.205,196.121z M96.757,21.502h249.054v110.006c0,5.94,4.817,10.751,10.751,10.751h94.972
		v53.861H96.757V21.502z M314.575,314.661c-21.123-7.359-34.907-19.045-34.907-37.544c0-21.698,18.109-38.297,48.115-38.297
		c14.331,0,24.903,3.014,32.442,6.413l-6.411,23.2c-5.091-2.446-14.146-6.037-26.598-6.037s-18.488,5.662-18.488,12.266
		c0,8.114,7.171,11.696,23.58,17.921c22.446,8.305,33.013,20,33.013,37.921c0,21.323-16.415,39.435-51.317,39.435
		c-14.524,0-28.861-3.769-36.031-7.736l5.843-23.77c7.738,3.957,19.627,7.926,31.885,7.926c13.219,0,20.188-5.469,20.188-13.773
		C335.894,324.667,329.858,320.13,314.575,314.661z M265.917,343.899v24.158h-79.439V240.882h28.877v103.018H265.917z
		 M94.237,368.058H61.411l36.788-64.354l-35.474-62.827h33.021l11.125,23.21c3.773,7.736,6.605,13.954,9.628,21.135h0.367
		c3.026-8.115,5.477-13.774,8.675-21.135l10.756-23.21h32.827l-35.849,62.065l37.74,65.104h-33.202L126.3,345.024
		c-4.709-8.855-7.73-15.465-11.316-22.824h-0.375c-2.645,7.359-5.845,13.969-9.811,22.824L94.237,368.058z M451.533,520.968H96.757
		V417.392h354.775L451.533,520.968L451.533,520.968z M451.728,368.058l-11.512-23.022c-4.715-8.863-7.733-15.466-11.319-22.825
		h-0.366c-2.646,7.359-5.857,13.962-9.827,22.825l-10.551,23.022h-32.836l36.788-64.354l-35.471-62.827h33.02l11.14,23.21
		c3.77,7.736,6.593,13.954,9.617,21.135h0.377c3.014-8.115,5.459-13.774,8.672-21.135l10.752-23.21h32.835l-35.85,62.065
		l37.733,65.104h-33.202V368.058L451.728,368.058z"/>
</g>
</svg>
