<?xml version="1.0" encoding="utf-8"?>
<!-- Generator: Adobe Illustrator 16.0.0, SVG Export Plug-In . SVG Version: 6.00 Build 0)  -->
<!DOCTYPE svg PUBLIC "-//W3C//DTD SVG 1.1//EN" "http://www.w3.org/Graphics/SVG/1.1/DTD/svg11.dtd">
<svg version="1.1" id="Layer_1" xmlns="http://www.w3.org/2000/svg" xmlns:xlink="http://www.w3.org/1999/xlink" x="0px" y="0px"
	 width="160.011px" height="162.596px" viewBox="0 0 160.011 162.596" enable-background="new 0 0 160.011 162.596"
	 xml:space="preserve">
<path fill="#04A6E4" d="M41.567,103.992c-2.451-2.446-3.373-1.22-3.917-0.676c-14.101,14.102-26.616,48.126-20.003,44.799
	c24.092-12.092,28.107-8.492,42.205-22.594c0.547-0.543,1.799-1.44-0.717-3.962L41.567,103.992z"/>
<path fill="#04A6E4" d="M117.574,102.803c-0.634-2.034,0.7-3.015,1.27-3.624c31.117-33.597,50.894-78.363,36.24-93.02
	C140.505-8.42,97.115,11.937,63.53,42.832c-0.664,0.613-1.973,1.771-4.316,1.28l-10.465-2.491c-2.907-0.692-7.01,0.469-9.126,2.582
	L1.224,82.606c-2.108,2.109-1.425,4.218,1.524,4.68l27.778,4.364c2.948,0.461,7.092-0.881,9.204-2.998c0,0,1.429-1.433,2.87,0.009
	c7.944,7.939,22.704,22.699,30.273,30.269c1.504,1.499,0.063,2.933,0.063,2.933c-2.113,2.117-3.46,6.261-2.998,9.208l4.365,27.774
	c0.465,2.948,2.573,3.64,4.682,1.523l38.399-38.399c2.115-2.117,3.27-6.218,2.578-9.118L117.574,102.803z M108.976,53.189
	c-6.499-6.502-6.499-17.045,0-23.552c6.506-6.502,17.049-6.502,23.557,0c6.506,6.503,6.506,17.05,0,23.552
	C126.024,59.692,115.481,59.692,108.976,53.189z"/>
</svg>
