<?xml version="1.0" encoding="utf-8"?>
<!-- Generator: Adobe Illustrator 16.0.0, SVG Export Plug-In . SVG Version: 6.00 Build 0)  -->
<!DOCTYPE svg PUBLIC "-//W3C//DTD SVG 1.1//EN" "http://www.w3.org/Graphics/SVG/1.1/DTD/svg11.dtd">
<svg version="1.1" id="Layer_1" xmlns="http://www.w3.org/2000/svg" xmlns:xlink="http://www.w3.org/1999/xlink" x="0px" y="0px"
	 width="160.011px" height="162.596px" viewBox="0 0 160.011 162.596" enable-background="new 0 0 160.011 162.596"
	 xml:space="preserve">
<g>
	<path fill="#04A6E4" d="M41.567,103.992c-2.451-2.446-3.373-1.22-3.917-0.676c-14.101,14.102-26.616,48.126-20.003,44.799
		c24.092-12.092,28.107-8.492,42.205-22.594c0.547-0.543,1.799-1.44-0.717-3.962L41.567,103.992z"/>
	<path fill="#04A6E4" d="M117.574,102.803c-0.634-2.034,0.7-3.015,1.27-3.624c31.117-33.597,50.894-78.363,36.24-93.02
		C140.505-8.42,97.115,11.937,63.53,42.832c-0.664,0.613-1.973,1.771-4.316,1.28l-10.465-2.491c-2.907-0.692-7.01,0.469-9.126,2.582
		L1.224,82.606c-2.108,2.109-1.425,4.218,1.524,4.68l27.778,4.364c2.948,0.461,7.092-0.881,9.204-2.998c0,0,1.429-1.433,2.87,0.009
		c7.944,7.939,22.704,22.699,30.273,30.269c1.504,1.499,0.063,2.933,0.063,2.933c-2.113,2.117-3.46,6.261-2.998,9.208l4.365,27.774
		c0.465,2.948,2.573,3.64,4.682,1.523l38.399-38.399c2.115-2.117,3.27-6.218,2.578-9.118L117.574,102.803z M108.976,53.189
		c-6.499-6.502-6.499-17.045,0-23.552c6.506-6.502,17.049-6.502,23.557,0c6.506,6.503,6.506,17.05,0,23.552
		C126.024,59.692,115.481,59.692,108.976,53.189z"/>
</g>
<g>
	<path fill="#04A6E4" d="M15.927,27.895c-0.634-0.632-0.873-0.314-1.013-0.174c-3.647,3.647-6.884,12.447-5.173,11.587
		c6.231-3.128,7.269-2.197,10.916-5.844c0.142-0.141,0.464-0.372-0.186-1.024L15.927,27.895z"/>
	<path fill="#04A6E4" d="M35.586,27.587c-0.165-0.526,0.18-0.779,0.327-0.937c8.049-8.689,13.164-20.269,9.374-24.059
		c-3.771-3.771-14.994,1.494-23.68,9.484c-0.172,0.159-0.51,0.458-1.116,0.331l-2.707-0.644c-0.752-0.179-1.813,0.122-2.361,0.667
		l-9.932,9.933c-0.545,0.546-0.368,1.091,0.394,1.21l7.185,1.129c0.763,0.118,1.835-0.228,2.381-0.776c0,0,0.37-0.369,0.743,0.002
		c2.055,2.053,5.873,5.872,7.829,7.829c0.389,0.388,0.018,0.759,0.018,0.759c-0.547,0.547-0.896,1.62-0.777,2.381l1.13,7.185
		c0.121,0.762,0.666,0.941,1.21,0.393l9.933-9.932c0.547-0.547,0.845-1.608,0.667-2.357L35.586,27.587z M33.362,14.756
		c-1.681-1.682-1.681-4.409,0-6.091c1.683-1.683,4.41-1.683,6.093,0c1.683,1.682,1.683,4.41,0,6.091S35.045,16.437,33.362,14.756z"
		/>
</g>
<g>
	<path fill="#04A6E4" d="M124.842,144.491c-0.729-0.726-1.002-0.361-1.163-0.199c-4.188,4.186-7.903,14.289-5.938,13.301
		c7.153-3.59,8.344-2.521,12.531-6.709c0.162-0.162,0.532-0.428-0.214-1.177L124.842,144.491z"/>
	<path fill="#04A6E4" d="M147.411,144.139c-0.189-0.604,0.207-0.895,0.376-1.076c9.24-9.975,15.111-23.268,10.762-27.619
		c-4.329-4.329-17.214,1.715-27.185,10.889c-0.197,0.184-0.585,0.526-1.281,0.379l-3.107-0.738c-0.863-0.207-2.081,0.14-2.71,0.766
		l-11.401,11.402c-0.627,0.629-0.424,1.254,0.451,1.392l8.248,1.296c0.875,0.135,2.107-0.263,2.733-0.892
		c0,0,0.425-0.424,0.853,0.003c2.359,2.358,6.742,6.738,8.987,8.986c0.448,0.445,0.021,0.873,0.021,0.873
		c-0.628,0.627-1.027,1.858-0.891,2.733l1.296,8.248c0.139,0.875,0.764,1.079,1.39,0.45l11.403-11.402
		c0.628-0.628,0.97-1.845,0.765-2.707L147.411,144.139z M144.858,129.406c-1.931-1.93-1.931-5.061,0-6.991
		c1.932-1.933,5.062-1.933,6.993,0c1.933,1.931,1.933,5.062,0,6.991C149.919,131.337,146.79,131.337,144.858,129.406z"/>
</g>
</svg>
