<?xml version="1.0" encoding="utf-8"?>
<!-- Generator: Adobe Illustrator 16.0.0, SVG Export Plug-In . SVG Version: 6.00 Build 0)  -->
<!DOCTYPE svg PUBLIC "-//W3C//DTD SVG 1.1//EN" "http://www.w3.org/Graphics/SVG/1.1/DTD/svg11.dtd">
<svg version="1.1" id="Capa_1" xmlns="http://www.w3.org/2000/svg" xmlns:xlink="http://www.w3.org/1999/xlink" x="0px" y="0px"
	 width="486.734px" height="486.734px" viewBox="0 0 486.734 486.734" enable-background="new 0 0 486.734 486.734"
	 xml:space="preserve">
<g>
	<path fill="#999999" d="M403.88,196.563h-9.484v-44.388c0-82.099-65.15-150.681-146.582-152.145c-2.225-0.04-6.671-0.04-8.895,0
		C157.486,1.494,92.336,70.076,92.336,152.175v44.388h-9.485c-14.616,0-26.538,15.082-26.538,33.709v222.632
		c0,18.605,11.922,33.83,26.539,33.83H403.88c14.615,0,26.539-15.225,26.539-33.83V230.272
		C430.419,211.646,418.498,196.563,403.88,196.563z M273.442,341.363v67.27c0,7.703-6.448,14.223-14.157,14.223H227.45
		c-7.71,0-14.159-6.52-14.159-14.223v-67.27c-7.477-7.361-11.83-17.537-11.83-28.795c0-21.335,16.491-39.667,37.459-40.514
		c2.222-0.09,6.673-0.09,8.895,0c20.968,0.847,37.459,19.179,37.459,40.514C285.272,323.826,280.919,334.001,273.442,341.363z
		 M331.886,196.563h-84.072h-8.895h-84.072v-44.388c0-48.905,39.744-89.342,88.519-89.342c48.775,0,88.52,40.437,88.52,89.342
		V196.563L331.886,196.563z"/>
</g>
</svg>
