<svg width="684" height="336" viewBox="0 0 684 336" enable-background="new 0 0 684 336" xml:space="preserve" xmlns="http://www.w3.org/2000/svg">
 <defs>
  <filter id="svg_7_blur">
   <feGaussianBlur stdDeviation="0" in="SourceGraphic"/>
  </filter>
 </defs>
 <g>
  <title>background</title>
  <rect x="-1" y="-1" width="682" height="334" id="canvas_background" fill="none"/>
 </g>
 <g>
  <title>Layer 1</title>
  <g id="svg_1"/>
  <text fill="#ffffff" stroke="#000" stroke-width="0" x="61.675002" y="255" id="7" font-size="128" font-family="Helvetica, Arial, sans-serif" text-anchor="start" xml:space="preserve" font-weight="normal" >ARCOPM</text>
  <text fill="#ffffff" stroke="#000" x="140.325003" y="288.5" id="svg_8" font-size="34" font-family="Helvetica, Arial, sans-serif" text-anchor="start" xml:space="preserve" stroke-width="0">Performance Management</text>
  <g fill="#7dd22c" id="layer1">
   <path id="svg_2" d="m323.325531,153.18129c-9.592041,-2.148331 -16.932922,-5.421997 -24.861023,-10.844055c-28.971985,-20.358109 -38.955566,-58.926033 -23.686554,-91.560421c7.536621,-16.061451 17.520203,-26.496281 32.397675,-33.86203c10.179352,-5.012808 18.009583,-6.854239 29.852814,-6.854239c11.843292,0 19.673584,1.841431 29.852875,6.854239c14.877533,7.365749 24.861053,17.800579 32.397675,33.86203c14.192383,30.281452 6.460022,66.496426 -18.694672,87.775249c-6.851532,5.728928 -17.226593,11.253265 -25.448364,13.606216c-8.221802,2.250641 -23.980194,2.762161 -31.810425,1.02301zm32.299805,-9.718719c18.596863,-6.240448 33.082855,-21.176529 39.934296,-41.227753c2.153351,-6.445053 2.54483,-9.104912 2.54483,-19.232826c0,-10.025612 -0.391479,-12.992386 -2.64267,-20.051228c-3.327881,-10.434826 -8.417542,-18.72131 -16.541443,-26.598564c-12.528412,-12.17395 -24.958923,-17.289061 -41.891907,-17.186773c-6.94931,0 -12.234711,0.613819 -16.149841,1.841444c-21.141693,6.547344 -37.780975,24.45023 -43.066437,46.138271c-1.85965,7.672668 -1.85965,23.836418 0,31.202164c5.579071,22.19957 23.784424,40.920898 45.023987,46.445206c8.221771,2.250656 24.371674,1.534546 32.789185,-1.329941z"/>
  </g>
  <g fill="#484849" id="layer2">
   <path id="svg_3" d="m317.320038,156.862396c-20.832031,-6.334412 -37.824036,-21.761826 -46.46402,-42.195518c-4.70401,-10.829834 -5.856018,-17.572968 -5.856018,-32.898216c0,-12.566666 0.288025,-14.712219 2.880035,-23.294342c7.487946,-25.031277 26.879944,-44.443275 50.687958,-50.982047c9.888031,-2.656379 26.975983,-2.656379 36.864014,0c23.807983,6.538771 43.200012,25.95077 50.688049,50.982047c2.591949,8.582123 2.879944,10.727676 2.879944,23.294342c0,15.325249 -1.151947,22.068382 -5.855988,32.898216c-8.832001,20.740166 -26.687958,36.780586 -47.615997,42.502068c-8.256012,2.24762 -30.432007,2.145462 -38.207977,-0.306549zm40.319977,-5.619232c10.752045,-3.678085 19.007996,-9.093002 27.360016,-17.981674c8.255951,-8.888603 13.343933,-17.470711 16.991882,-29.117981c2.304108,-7.151756 2.592041,-9.808182 2.68808,-21.455353c0,-11.136299 -0.383972,-14.507912 -2.207977,-20.944473c-7.200043,-24.520405 -25.439972,-43.012859 -49.151978,-49.755991c-8.352051,-2.349865 -24.288055,-2.349865 -32.640106,0c-23.711945,6.743132 -41.951935,25.235586 -49.151947,49.755991c-1.824005,6.436562 -2.207977,9.808174 -2.207977,20.944473c0.096039,11.647171 0.383972,14.303596 2.687958,21.455353c7.87207,25.23558 26.496033,43.115112 51.072083,49.14296c8.927917,2.145554 25.055939,1.226044 34.559967,-2.043304z"/>
   <path id="svg_4" d="m325.960022,106.289063c-0.480042,-0.306465 -3.456055,-1.226051 -6.432037,-2.247711l-5.567993,-1.736832l0,-5.312767c0,-6.232254 0.191956,-6.436562 9.503998,-11.238541c7.968018,-4.188858 8.92804,-6.232262 5.952057,-12.87323c-2.496033,-5.414917 -2.784027,-16.653378 -0.57608,-20.024986c3.167999,-4.801884 13.152069,-4.801884 16.320068,0c2.207977,3.371609 1.920013,14.610069 -0.575989,20.024986c-2.976074,6.640968 -2.016052,8.684372 5.951965,12.87323c9.312042,4.801979 9.503967,5.006287 9.503967,11.238541l0,5.312767l-4.992004,1.838989c-4.703979,1.736938 -26.208008,3.269463 -29.087952,2.145554z"/>
   <path id="svg_5" d="m297.832001,95.254913l0.288025,-7.458305l5.664032,-3.167206c7.103973,-4.086792 7.871948,-5.414917 5.471985,-9.808182c-2.496033,-4.801888 -2.496033,-12.158043 0,-15.52956c2.783936,-3.780231 8.543945,-3.780231 11.327911,0c2.400085,3.26936 2.688019,10.012493 0.57608,14.303501c-1.63205,3.37162 -1.919952,7.151848 -0.480103,8.07135c1.632141,1.021645 1.056061,2.349854 -1.343903,2.962891c-1.247986,0.306465 -3.64801,1.941147 -5.279999,3.575821c-2.68808,2.656433 -2.975983,3.575928 -2.975983,8.684372l0,5.72139l-6.720032,0l-6.81604,0l0.288025,-7.356071z"/>
   <path id="svg_6" d="m362.920013,96.889595c0,-5.108444 -0.287994,-6.027939 -2.975983,-8.684372c-1.631958,-1.634674 -4.032043,-3.269356 -5.279999,-3.575821c-2.400024,-0.613037 -2.976013,-1.941246 -1.343994,-2.962891c1.439941,-0.919502 1.151947,-4.69973 -0.480042,-8.07135c-2.112,-4.291008 -1.823914,-11.034142 0.57605,-14.303501c2.783966,-3.780231 8.543976,-3.780231 11.328003,0c2.495911,3.371517 2.495911,10.727673 0,15.52956c-2.400085,4.393265 -1.63208,5.72139 5.472015,9.808182l5.66394,3.167206l0.288025,7.458305l0.288025,7.356071l-6.816071,0l-6.719971,0l0,-5.72139z"/>
  </g>
 </g>
</svg>



