<?xml version="1.0" encoding="utf-8"?>
<!-- Generator: Adobe Illustrator 16.0.0, SVG Export Plug-In . SVG Version: 6.00 Build 0)  -->
<!DOCTYPE svg PUBLIC "-//W3C//DTD SVG 1.1//EN" "http://www.w3.org/Graphics/SVG/1.1/DTD/svg11.dtd">
<svg version="1.1" xmlns="http://www.w3.org/2000/svg" xmlns:xlink="http://www.w3.org/1999/xlink" x="0px" y="0px"
	 width="289.257px" height="195.6px" viewBox="0 0 289.257 195.6" enable-background="new 0 0 289.257 195.6" xml:space="preserve">
<g id="Layer_2" display="none">
</g>
<g id="Layer_1" display="none">
</g>
<g id="Layer_4" display="none">
</g>
<g id="Layer_3">
	<g>
		<path fill="#FFFFFF" d="M193.359,37.797C193.359,16.923,170.724,0,142.8,0S92.24,16.923,92.24,37.797
			c0,18.215,17.238,33.416,40.185,36.996c-1.515,7.617-14.22,13.219-14.22,13.219c15.609-2.708,24.275-7.865,29.078-12.574
			C173.104,73.741,193.359,57.542,193.359,37.797z"/>
		<path fill="#18A4DD" d="M147.169,0c25.34,0,45.881,15.092,45.881,33.709c0,18.618-20.541,33.709-45.881,33.709
			c-25.341,0-45.883-15.091-45.883-33.709C101.287,15.092,121.829,0,147.169,0z"/>
		<g>
			<circle fill="#FFFFFF" cx="138.362" cy="12.567" r="4.323"/>
			<path fill="#FFFFFF" d="M133.541,32.038h0.428v8.575c0,1.179,0.966,2.142,2.145,2.142h4.5c1.182,0,2.144-0.965,2.144-2.142
				v-0.501c-0.393-0.75-0.644-1.608-0.644-2.5v-11.22c0-2.179,1.322-4.073,3.217-4.894v-0.855c0-1.182-0.965-2.146-2.143-2.146
				h-9.646c-1.179,0-2.145,0.967-2.145,2.146v9.251C131.395,31.074,132.326,32.038,133.541,32.038z"/>
			<path fill="#FFFFFF" d="M168.3,8.244c2.389,0,4.323,1.935,4.323,4.323c0,2.387-1.935,4.323-4.323,4.323
				c-2.385,0-4.322-1.937-4.322-4.323C163.978,10.179,165.916,8.244,168.3,8.244z"/>
			<path fill="#FFFFFF" d="M161.3,20.606v0.856c1.893,0.821,3.215,2.714,3.215,4.895V37.54c0,0.895-0.215,1.75-0.645,2.502v0.5
				c0,1.18,0.965,2.144,2.145,2.144h4.502c1.178,0,2.143-0.964,2.143-2.144v-8.574h0.432c1.174,0,2.142-0.965,2.142-2.143v-9.219
				c0-1.18-0.966-2.144-2.142-2.144h-9.648C162.265,18.461,161.3,19.426,161.3,20.606z"/>
			<path fill="#FFFFFF" d="M145.366,26.392L145.366,26.392v3.503v7.717c0,1.18,0.965,2.142,2.144,2.142h0.821v10.112
				c0,1.178,0.965,2.143,2.144,2.143h5.753c1.177,0,2.143-0.965,2.143-2.143V39.718h0.821c1.178,0,2.143-0.964,2.143-2.144v-7.681
				v-3.503l0,0c0-1.178-0.965-2.143-2.143-2.143h-11.684C146.294,24.249,145.366,25.214,145.366,26.392z"/>
			<circle fill="#FFFFFF" cx="153.332" cy="17.498" r="4.967"/>
		</g>
	</g>
	<g enable-background="new    ">
		<path fill="#FFFFFF" d="M4.49,162.72H1.069l19.763-43.679h3.818l19.854,43.679h-3.818l-6.476-14.662H15.853l1.252-2.749h15.914
			l-10.477-23.764L4.49,162.72z"/>
		<path fill="#FFFFFF" d="M50.46,162.72v-43.679h18.021c7.9,0,11.851,3.493,11.851,10.477c0,6.048-4.287,10.334-12.859,12.859
			l14.753,20.343h-4.398l-14.509-20.251V140.3c8.959-1.323,13.439-4.836,13.439-10.538c0-5.253-2.932-7.88-8.797-7.88H53.667v40.838
			H50.46z"/>
		<path fill="#FFFFFF" d="M121.782,161.193c-3.971,1.222-8.043,1.833-12.218,1.833c-15.272,0-22.909-7.585-22.909-22.756
			c0-14.356,7.636-21.534,22.909-21.534c4.174,0,8.247,0.611,12.218,1.833v2.749c-3.971-1.222-7.84-1.833-11.607-1.833
			c-13.542,0-20.313,6.262-20.313,18.785c0,13.338,6.771,20.007,20.313,20.007c3.767,0,7.636-0.611,11.607-1.833V161.193z"/>
		<path fill="#FFFFFF" d="M129.571,140.942c0-14.804,7.31-22.206,21.931-22.206c14.396,0,21.595,7.402,21.595,22.206
			c0,14.723-7.199,22.084-21.595,22.084C136.881,163.026,129.571,155.665,129.571,140.942z M151.502,160.277
			c12.055,0,18.083-6.506,18.083-19.519c0-12.849-6.028-19.273-18.083-19.273c-12.279,0-18.418,6.425-18.418,19.273
			C133.083,153.771,139.223,160.277,151.502,160.277z"/>
		<path fill="#FFFFFF" d="M181.039,161.193v-3.36c4.582,1.629,9.632,2.444,15.15,2.444c9.143,0,13.715-3.462,13.715-10.385
			c0-5.091-2.974-7.636-8.919-7.636h-8.98c-8.125,0-12.188-3.666-12.188-10.996c0-8.349,5.956-12.523,17.869-12.523
			c4.887,0,9.622,0.611,14.204,1.833v3.055c-4.582-1.425-9.316-2.138-14.204-2.138c-9.774,0-14.662,3.258-14.662,9.774
			c0,5.294,2.994,7.941,8.98,7.941h8.98c8.084,0,12.126,3.564,12.126,10.691c0,8.756-5.641,13.134-16.922,13.134
			C190.67,163.026,185.621,162.415,181.039,161.193z"/>
		<path fill="#FFFFFF" d="M221.358,162.72v-43.679h3.207l19.702,39.922l18.479-39.922h2.902v43.679h-2.902v-37.784l-17.35,37.784
			h-2.627l-18.51-38.089v38.089H221.358z"/>
	</g>
	<g>
		<path fill="#FFFFFF" d="M1.695,195.6h-1.5l4.742-11.172h1.602l4.766,11.172H9.703l-1.445-3.516H4.563l0.398-1.172h2.813
			l-2.086-5.063L1.695,195.6z"/>
		<path fill="#FFFFFF" d="M13.116,195.6v-11.172h4.766c2.125,0,3.188,0.894,3.188,2.68c0,1.453-1.039,2.529-3.117,3.227l3.836,5.266
			h-1.906l-3.555-5.023v-0.945c2.135-0.338,3.203-1.159,3.203-2.461c0-1.031-0.594-1.547-1.781-1.547h-3.188v9.977H13.116z"/>
		<path fill="#FFFFFF" d="M32.037,195.209c-0.964,0.313-2.005,0.469-3.125,0.469c-3.906,0-5.859-1.94-5.859-5.82
			c0-3.672,1.953-5.508,5.859-5.508c1.12,0,2.161,0.156,3.125,0.469v1.25c-0.964-0.364-1.953-0.547-2.969-0.547
			c-3.047,0-4.57,1.445-4.57,4.336c0,3.099,1.523,4.648,4.57,4.648c1.016,0,2.005-0.182,2.969-0.547V195.209z"/>
		<path fill="#FFFFFF" d="M34.708,195.6v-11.172h1.445v4.922h6.602v-4.922H44.2V195.6h-1.445v-5.078h-6.602v5.078H34.708z"/>
		<path fill="#FFFFFF" d="M48.824,184.428V195.6h-1.445v-11.172H48.824z"/>
		<path fill="#FFFFFF" d="M52.002,195.6v-11.172h4.766c2.125,0,3.188,0.894,3.188,2.68c0,1.453-1.039,2.529-3.117,3.227l3.836,5.266
			h-1.906l-3.555-5.023v-0.945c2.135-0.338,3.203-1.159,3.203-2.461c0-1.031-0.594-1.547-1.781-1.547h-3.188v9.977H52.002z"/>
		<path fill="#FFFFFF" d="M62.095,190.03c0-3.786,1.87-5.68,5.609-5.68c3.682,0,5.523,1.894,5.523,5.68
			c0,3.766-1.841,5.648-5.523,5.648C63.965,195.678,62.095,193.795,62.095,190.03z M67.705,194.506c2.667,0,4-1.508,4-4.523
			c0-2.974-1.333-4.461-4-4.461c-2.724,0-4.086,1.487-4.086,4.461C63.619,192.999,64.98,194.506,67.705,194.506z"/>
		<path fill="#FFFFFF" d="M75.782,195.6v-11.172h4.063c3.698,0,5.547,1.761,5.547,5.281c0,3.927-1.849,5.891-5.547,5.891H75.782z
			 M79.844,194.428c2.734,0,4.102-1.573,4.102-4.719c0-2.739-1.367-4.109-4.102-4.109h-2.617v8.828H79.844z"/>
		<path fill="#FFFFFF" d="M87.398,190.03c0-3.786,1.87-5.68,5.609-5.68c3.682,0,5.523,1.894,5.523,5.68
			c0,3.766-1.841,5.648-5.523,5.648C89.268,195.678,87.398,193.795,87.398,190.03z M93.007,194.506c2.667,0,4-1.508,4-4.523
			c0-2.974-1.333-4.461-4-4.461c-2.724,0-4.086,1.487-4.086,4.461C88.921,192.999,90.283,194.506,93.007,194.506z"/>
		<path fill="#FFFFFF" d="M101.084,195.6v-11.172h1.445l6.836,9v-9h1.367V195.6h-1.445l-6.836-9.078v9.078H101.084z"/>
		<path fill="#FFFFFF" d="M117.715,195.209v-1.328c1.172,0.417,2.438,0.625,3.797,0.625c1.922,0,2.883-0.703,2.883-2.109
			c0-1.198-0.708-1.797-2.125-1.797h-1.438c-2.339,0-3.508-1.016-3.508-3.047c0-2.135,1.497-3.203,4.492-3.203
			c1.302,0,2.513,0.156,3.633,0.469v1.328c-1.12-0.417-2.331-0.625-3.633-0.625c-2.031,0-3.047,0.677-3.047,2.031
			c0,1.198,0.688,1.797,2.063,1.797h1.438c2.38,0,3.57,1.016,3.57,3.047c0,2.188-1.443,3.281-4.328,3.281
			C120.152,195.678,118.887,195.522,117.715,195.209z"/>
		<path fill="#FFFFFF" d="M128.159,191.288v-6.859h1.445v6.859c0,2.146,1.067,3.219,3.203,3.219c2.135,0,3.203-1.073,3.203-3.219
			v-6.859h1.445v6.859c0,2.927-1.55,4.391-4.648,4.391C129.708,195.678,128.159,194.215,128.159,191.288z"/>
		<path fill="#FFFFFF" d="M140.322,195.6v-11.172h4.766c2.125,0,3.188,0.894,3.188,2.68c0,1.453-1.039,2.529-3.117,3.227
			l3.836,5.266h-1.906l-3.555-5.023v-0.945c2.135-0.338,3.203-1.159,3.203-2.461c0-1.031-0.594-1.547-1.781-1.547h-3.188v9.977
			H140.322z"/>
		<path fill="#FFFFFF" d="M160.782,184.428L156.04,195.6h-1.602l-4.766-11.172h1.523l4.094,9.672l3.992-9.672H160.782z"/>
		<path fill="#FFFFFF" d="M169.898,184.428v1.172h-5.86v3.75h5.586v1.172h-5.586v3.906h5.977v1.172h-7.422v-11.172H169.898z"/>
		<path fill="#FFFFFF" d="M171.358,184.428h1.602l3.219,5.836l3.266-5.836h1.68l-4.266,7.266v3.906h-1.445v-3.906L171.358,184.428z"
			/>
		<path fill="#FFFFFF" d="M187.129,195.6v-11.172h1.836l4.102,9.32l4.023-9.32h1.758V195.6h-1.289v-9.164l-3.969,9.164h-1.141
			l-4.031-9.164v9.164H187.129z"/>
		<path fill="#FFFFFF" d="M202.159,195.6h-1.5l4.742-11.172h1.602l4.766,11.172h-1.602l-1.445-3.516h-3.695l0.398-1.172h2.813
			l-2.086-5.063L202.159,195.6z"/>
		<path fill="#FFFFFF" d="M213.58,195.6v-11.172h1.445l6.836,9v-9h1.367V195.6h-1.445l-6.836-9.078v9.078H213.58z"/>
		<path fill="#FFFFFF" d="M226.54,195.6h-1.5l4.742-11.172h1.602l4.766,11.172h-1.602l-1.445-3.516h-3.695l0.398-1.172h2.813
			l-2.086-5.063L226.54,195.6z"/>
		<path fill="#FFFFFF" d="M246.398,195.163c-0.901,0.344-1.872,0.516-2.914,0.516c-4.047,0-6.07-1.94-6.07-5.82
			c0-3.672,1.953-5.508,5.859-5.508c1.12,0,2.161,0.156,3.125,0.469v1.25c-0.964-0.364-1.953-0.547-2.969-0.547
			c-3.047,0-4.57,1.445-4.57,4.336c0,3.099,1.5,4.648,4.5,4.648c0.479,0,1.011-0.063,1.594-0.188v-3.797h1.445V195.163z"/>
		<path fill="#FFFFFF" d="M256.374,184.428v1.172h-5.859v3.75h5.586v1.172h-5.586v3.906h5.977v1.172h-7.422v-11.172H256.374z"/>
		<path fill="#FFFFFF" d="M258.967,195.6v-11.172h4.766c2.125,0,3.188,0.894,3.188,2.68c0,1.453-1.039,2.529-3.117,3.227
			l3.836,5.266h-1.906l-3.555-5.023v-0.945c2.136-0.338,3.203-1.159,3.203-2.461c0-1.031-0.594-1.547-1.781-1.547h-3.188v9.977
			H258.967z"/>
	</g>
</g>
</svg>
