<?xml version="1.0" encoding="utf-8"?>
<!-- Generator: Adobe Illustrator 16.0.0, SVG Export Plug-In . SVG Version: 6.00 Build 0)  -->
<!DOCTYPE svg PUBLIC "-//W3C//DTD SVG 1.1//EN" "http://www.w3.org/Graphics/SVG/1.1/DTD/svg11.dtd">
<svg version="1.1" id="Layer_1" xmlns="http://www.w3.org/2000/svg" xmlns:xlink="http://www.w3.org/1999/xlink" x="0px" y="0px"
	 width="162.317px" height="173.897px" viewBox="0 0 162.317 173.897" enable-background="new 0 0 162.317 173.897"
	 xml:space="preserve">
<path fill="#FFFFFF" d="M162.317,93.161c0,44.517-36.412,80.736-81.155,80.736C36.41,173.897,0,137.677,0,93.161
	c0-23.023,9.925-45.027,27.234-60.335c2.574-2.282,6.531-2.063,8.817,0.508c2.293,2.571,2.059,6.478-0.513,8.758
	C20.886,55.071,12.484,73.679,12.484,93.161c0,37.676,30.81,68.316,68.678,68.316c37.867,0,68.669-30.64,68.669-68.316
	c0-19.482-8.391-38.09-23.022-51.043c-2.585-2.281-2.827-6.212-0.534-8.76c2.315-2.595,6.267-2.814,8.825-0.532
	C152.394,48.134,162.317,70.138,162.317,93.161z M81.162,74.528c3.451,0,6.244-2.766,6.244-6.21V6.212
	C87.406,2.791,84.613,0,81.162,0s-6.246,2.792-6.246,6.212v62.106C74.917,71.763,77.711,74.528,81.162,74.528z"/>
</svg>
