<?xml version="1.0" encoding="utf-8"?>
<!-- Generator: Adobe Illustrator 16.0.0, SVG Export Plug-In . SVG Version: 6.00 Build 0)  -->
<!DOCTYPE svg PUBLIC "-//W3C//DTD SVG 1.1//EN" "http://www.w3.org/Graphics/SVG/1.1/DTD/svg11.dtd">
<svg version="1.1" xmlns="http://www.w3.org/2000/svg" xmlns:xlink="http://www.w3.org/1999/xlink" x="0px" y="0px"
	 width="482.263px" height="87.968px" viewBox="0 0 482.263 87.968" enable-background="new 0 0 482.263 87.968"
	 xml:space="preserve">
<g id="Layer_2" display="none">
	<rect x="-155.737" y="-87.904" display="inline" fill="#18A4DD" width="725" height="262"/>
</g>
<g id="Layer_1">
	<g>
		<path fill="#FFFFFF" d="M101.07,37.778C101.07,16.915,78.445,0,50.536,0C22.625,0,0,16.915,0,37.778
			c0,18.207,17.23,33.399,40.164,36.978C38.65,82.37,25.951,87.968,25.951,87.968c15.602-2.706,24.264-7.861,29.065-12.567
			C80.824,73.705,101.07,57.512,101.07,37.778z"/>
		<path fill="#18A4DD" d="M54.903,0c25.328,0,45.859,15.083,45.859,33.693c0,18.608-20.532,33.691-45.859,33.691
			c-25.329,0-45.861-15.083-45.861-33.691C9.042,15.083,29.574,0,54.903,0z"/>
		<g>
			<circle fill="#FFFFFF" cx="46.1" cy="12.561" r="4.321"/>
			<path fill="#FFFFFF" d="M41.28,32.021h0.429v8.571c0,1.179,0.964,2.142,2.143,2.142h4.499c1.179,0,2.141-0.964,2.141-2.142v-0.5
				c-0.392-0.75-0.643-1.607-0.643-2.5V26.379c0-2.177,1.321-4.071,3.215-4.891v-0.856c0-1.181-0.965-2.145-2.142-2.145H41.28
				c-1.178,0-2.143,0.965-2.143,2.145v9.248C39.136,31.058,40.066,32.021,41.28,32.021z"/>
			<circle fill="#FFFFFF" cx="76.024" cy="12.561" r="4.321"/>
			<path fill="#FFFFFF" d="M69.025,20.595v0.856c1.892,0.821,3.213,2.714,3.213,4.893v11.178c0,0.893-0.215,1.75-0.644,2.5v0.5
				c0,1.18,0.966,2.143,2.145,2.143h4.498c1.179,0,2.142-0.964,2.142-2.143v-8.57h0.432c1.174,0,2.141-0.964,2.141-2.141v-9.215
				c0-1.178-0.966-2.141-2.141-2.141h-9.644C69.992,18.453,69.025,19.417,69.025,20.595z"/>
			<path fill="#FFFFFF" d="M53.099,26.379L53.099,26.379v3.501v7.711c0,1.18,0.965,2.142,2.142,2.142h0.822V49.84
				c0,1.179,0.964,2.143,2.142,2.143h5.75c1.176,0,2.142-0.965,2.142-2.143V39.698h0.82c1.179,0,2.143-0.963,2.143-2.143v-7.676
				v-3.501l0,0c0-1.178-0.965-2.141-2.143-2.141H55.24C54.028,24.237,53.099,25.202,53.099,26.379z"/>
			<circle fill="#FFFFFF" cx="61.063" cy="17.489" r="4.964"/>
		</g>
	</g>
	<g enable-background="new    ">
		<path fill="#FFFFFF" d="M143.16,73.118h-4.375l25.273-55.859h4.883l25.391,55.859h-4.883l-8.281-18.75h-23.477l1.602-3.516h20.352
			l-13.398-30.391L143.16,73.118z"/>
		<path fill="#FFFFFF" d="M201.949,73.118V17.258h23.047c10.104,0,15.156,4.467,15.156,13.398c0,7.734-5.482,13.217-16.445,16.445
			l18.867,26.016h-5.625l-18.555-25.898v-2.773c11.458-1.692,17.188-6.185,17.188-13.477c0-6.719-3.75-10.078-11.25-10.078H206.05
			v52.227H201.949z"/>
		<path fill="#FFFFFF" d="M293.16,71.165c-5.078,1.563-10.287,2.344-15.625,2.344c-19.531,0-29.297-9.7-29.297-29.102
			c0-18.359,9.766-27.539,29.297-27.539c5.338,0,10.547,0.781,15.625,2.344v3.516c-5.078-1.563-10.026-2.344-14.844-2.344
			c-17.318,0-25.977,8.008-25.977,24.023c0,17.058,8.658,25.586,25.977,25.586c4.817,0,9.766-0.781,14.844-2.344V71.165z"/>
		<path fill="#FFFFFF" d="M303.121,45.266c0-18.932,9.349-28.398,28.047-28.398c18.411,0,27.617,9.467,27.617,28.398
			c0,18.828-9.206,28.242-27.617,28.242C312.469,73.508,303.121,64.094,303.121,45.266z M331.167,69.993
			c15.416,0,23.125-8.32,23.125-24.961c0-16.432-7.709-24.648-23.125-24.648c-15.703,0-23.555,8.217-23.555,24.648
			C307.613,61.672,315.464,69.993,331.167,69.993z"/>
		<path fill="#FFFFFF" d="M368.941,71.165v-4.297c5.859,2.084,12.317,3.125,19.375,3.125c11.692,0,17.539-4.427,17.539-13.281
			c0-6.51-3.803-9.766-11.406-9.766h-11.484c-10.391,0-15.586-4.688-15.586-14.063c0-10.677,7.617-16.016,22.852-16.016
			c6.25,0,12.305,0.781,18.164,2.344v3.906c-5.859-1.822-11.914-2.734-18.164-2.734c-12.5,0-18.75,4.167-18.75,12.5
			c0,6.771,3.828,10.156,11.484,10.156h11.484c10.338,0,15.508,4.558,15.508,13.672c0,11.198-7.214,16.797-21.641,16.797
			C381.258,73.508,374.8,72.727,368.941,71.165z"/>
		<path fill="#FFFFFF" d="M420.503,73.118V17.258h4.102L449.8,68.313l23.633-51.055h3.711v55.859h-3.711v-48.32l-22.188,48.32
			h-3.359l-23.672-48.711v48.711H420.503z"/>
	</g>
</g>
</svg>
