<?xml version="1.0" encoding="utf-8"?>
<!-- Generator: Adobe Illustrator 16.0.0, SVG Export Plug-In . SVG Version: 6.00 Build 0)  -->
<!DOCTYPE svg PUBLIC "-//W3C//DTD SVG 1.1//EN" "http://www.w3.org/Graphics/SVG/1.1/DTD/svg11.dtd">
<svg version="1.1" id="Layer_1" xmlns="http://www.w3.org/2000/svg" xmlns:xlink="http://www.w3.org/1999/xlink" x="0px" y="0px"
	 width="181.25px" height="163.125px" viewBox="0 0 181.25 163.125" enable-background="new 0 0 181.25 163.125"
	 xml:space="preserve">
<path fill="#333333" d="M24.645,159.007c0,0-0.161,4.118,3.797,4.118c4.923,0,45.687-0.055,45.687-0.055l0.069-38.027
	c0,0-0.644-6.27,5.345-6.27H98.5c7.084,0,6.646,6.27,6.646,6.27l-0.08,37.905c0,0,38.653,0,44.722,0
	c5.027,0,4.797-5.125,4.797-5.125V87.715l-63.028-56.95l-66.911,56.95V159.007z"/>
<path fill="#333333" d="M0,82.415c0,0,5.682,10.635,18.07,0l74.044-63.628l69.42,63.232c14.342,10.507,19.716,0,19.716,0L92.114,0
	L0,82.415z"/>
<path fill="#333333" d="M159.851,18.636h-17.857l0.075,21.995l17.782,15.324V18.636z"/>
</svg>
