<?xml version="1.0" encoding="utf-8"?>
<!-- Generator: Adobe Illustrator 16.0.0, SVG Export Plug-In . SVG Version: 6.00 Build 0)  -->
<!DOCTYPE svg PUBLIC "-//W3C//DTD SVG 1.1//EN" "http://www.w3.org/Graphics/SVG/1.1/DTD/svg11.dtd">
<svg version="1.1" id="Capa_1" xmlns="http://www.w3.org/2000/svg" xmlns:xlink="http://www.w3.org/1999/xlink" x="0px" y="0px"
	 width="560.792px" height="560.793px" viewBox="0 0 560.792 560.793" enable-background="new 0 0 560.792 560.793"
	 xml:space="preserve">
<g>
	<g>
		<path fill="#555555" d="M146.734,331.121c10.887,10.888,19.707,7.234,19.707-8.164v-52.895h196.018
			c6.156,0,11.149-4.994,11.149-11.15V86.774c0-6.157-4.993-11.151-11.149-11.151H166.441V22.729
			c0-15.392-8.819-19.052-19.707-8.164L8.166,153.133c-10.888,10.888-10.888,28.532,0,39.419L146.734,331.121z"/>
		<path fill="#04A6E4" d="M414.062,229.67c-10.883-10.887-19.707-7.228-19.707,8.165v52.896H198.332
			c-6.157,0-11.15,4.994-11.15,11.149v172.138c0,6.156,4.994,11.15,11.15,11.15h196.017v52.896c0,15.392,8.824,19.051,19.705,8.163
			L552.63,407.658c10.881-10.889,10.881-28.531,0-39.419L414.062,229.67z"/>
	</g>
</g>
</svg>
