<svg xmlns="http://www.w3.org/2000/svg" width="608px" height="618px" viewBox="0 54.607 608 618" enable-background="new 0 54.607 608 618"
	 xml:space="preserve">

 
 <g>
  <title>Layer 1</title>
  <g id="svg_1">
   <path id="svg_2" fill="#6d7993" d="m310.634003,43.714001l-13.463989,0c-7.194,0 -13.026001,-5.833 -13.026001,-13.026001l0,-0.438c0,-16.707 -13.544006,-30.25 -30.251007,-30.25l-0.69899,0c-16.707016,0 -30.25,13.543 -30.25,30.25l0,0.438c0,7.194 -5.833008,13.027 -13.026001,13.027l-13.464005,0c-14.341003,0 -25.966003,11.625 -25.966003,25.966l0,0.525002c0,14.340996 11.625,25.965996 25.966003,25.965996l114.182983,0c14.339996,0 25.964996,-11.625999 25.964996,-25.965996l0,-0.526001c-0.000977,-14.34 -11.625977,-25.966 -25.967987,-25.966zm-57.091003,0c-7.242996,0 -13.113998,-5.872002 -13.113998,-13.114c0,-7.243 5.871994,-13.115 13.113998,-13.115c7.243011,0 13.114014,5.872 13.114014,13.115c0,7.242998 -5.871002,13.114 -13.114014,13.114zm58.385986,507.085987l-220.128983,0c-19.314003,0 -34.971004,-15.656982 -34.971004,-34.971008l0,-419.657982c0,-19.313995 15.657001,-34.970997 26.228001,-34.970997l70.853996,0c-0.590988,2.903996 -0.909988,5.913998 -0.909988,9.007999c0,23.958 19.491989,43.449997 43.453995,43.449997l114.177994,0c23.963013,0 43.453003,-19.491997 43.453003,-43.978996c0,-2.903 -0.311005,-5.733002 -0.855011,-8.479l53.312012,0c28.05899,0 43.714996,15.657001 43.714996,34.970997l0,262.727989c-2.906006,-0.181 -5.790985,-0.441986 -8.742004,-0.441986c-12.093994,0 -23.770996,1.70401 -34.972992,4.604004l0,-205.690002l-306,0l0,349.714996l201.528015,0c0.957977,15.367004 4.315979,30.075989 9.857971,43.713989zm129.586029,-166.113983c-62.770996,0 -113.656006,50.886993 -113.656006,113.656982s50.884003,113.657013 113.656006,113.657013s113.656006,-50.887024 113.656006,-113.657013s-50.88501,-113.656982 -113.656006,-113.656982zm74.266968,90.304993l-69.942993,78.686005c-3.445007,3.877014 -8.244019,5.86499 -13.076019,5.86499c-3.837982,0 -7.696991,-1.255005 -10.915985,-3.833008l-43.714996,-34.971008c-7.539001,-6.028015 -8.764008,-17.033997 -2.72702,-24.572998c6.027008,-7.546997 17.037018,-8.768982 24.576019,-2.730988l30.747986,24.597992l58.916016,-66.279999c6.40799,-7.214996 17.464996,-7.871979 24.68399,-1.450989c7.221008,6.420013 7.869019,17.468018 1.453003,24.690002zm-152.952972,-168.990997l-139.88501,0c-4.828995,0 -8.742996,-3.915009 -8.742996,-8.743011l0,-8.742981c0,-4.82901 3.914001,-8.743011 8.742996,-8.743011l139.884979,0c4.828003,0 8.744019,3.915009 8.744019,8.743011l0,8.742981c-0.001984,4.828003 -3.915985,8.743011 -8.743988,8.743011zm0,-78.686005l-139.88501,0c-4.828995,0 -8.742996,-3.914993 -8.742996,-8.742996l0,-8.742996c0,-4.82901 3.914001,-8.742996 8.742996,-8.742996l139.884979,0c4.828003,0 8.744019,3.914993 8.744019,8.742996l0,8.742996c-0.001984,4.828995 -3.915985,8.742996 -8.743988,8.742996zm-43.714996,148.628998l-96.169998,0c-4.828995,0 -8.742996,-3.915009 -8.742996,-8.743011l0,-8.742981c0,-4.82901 3.914001,-8.743011 8.742996,-8.743011l96.169998,0c4.829987,0 8.743988,3.914001 8.743988,8.743011l0,8.742981c-0.002014,4.828033 -3.914001,8.743011 -8.743988,8.743011zm-17.485016,78.686005l-78.686005,0c-4.828995,0 -8.742996,-3.915009 -8.742996,-8.743011l0,-8.742981c0,-4.82901 3.914001,-8.743011 8.742996,-8.743011l78.686005,0c4.82901,0 8.743011,3.914001 8.743011,8.743011l0,8.742981c0,4.828003 -3.914001,8.743011 -8.743011,8.743011zm-104.167999,-259.647995l-32.199005,36.223999c-1.585999,1.785004 -3.794998,2.701004 -6.019989,2.701004c-1.766998,0 -3.542999,-0.578003 -5.025009,-1.764999l-20.125,-16.098999c-3.470993,-2.775009 -4.033997,-7.841003 -1.255997,-11.312012c2.774002,-3.474991 7.843994,-4.037003 11.313995,-1.257996l14.154999,11.322998l27.123001,-30.513c2.950012,-3.320999 8.040009,-3.623993 11.363007,-0.667999c3.326004,2.956009 3.623993,8.042007 0.669998,11.367004zm0,77.785995l-32.199005,36.222992c-1.585999,1.785004 -3.794998,2.700012 -6.019989,2.700012c-1.766998,0 -3.542999,-0.576996 -5.025009,-1.765015l-20.125,-16.098999c-3.470993,-2.774994 -4.033997,-7.841003 -1.255997,-11.311981c2.774002,-3.475006 7.843994,-4.037018 11.313995,-1.257996l14.154999,11.323975l27.123001,-30.513c2.950012,-3.320984 8.040009,-3.623993 11.363007,-0.666992c3.326004,2.955017 3.623993,8.041992 0.669998,11.367004zm0,74.389008l-32.199005,36.223999c-1.585999,1.783997 -3.794998,2.699982 -6.019989,2.699982c-1.766998,0 -3.542999,-0.576996 -5.025009,-1.764984l-20.125,-16.100006c-3.470993,-2.773987 -4.033997,-7.841003 -1.255997,-11.311981c2.774002,-3.475006 7.843994,-4.037018 11.313995,-1.258026l14.154999,11.322998l27.123001,-30.513c2.950012,-3.320984 8.040009,-3.623993 11.363007,-0.667999c3.326004,2.958008 3.623993,8.044006 0.669998,11.369019zm0,74.914001l-32.199005,36.223999c-1.585999,1.785004 -3.794998,2.700012 -6.019989,2.700012c-1.766998,0 -3.542999,-0.576996 -5.025009,-1.765015l-20.125,-16.100006c-3.470993,-2.773987 -4.033997,-7.840973 -1.255997,-11.311981c2.774002,-3.475006 7.843994,-4.037018 11.313995,-1.257996l14.154999,11.322998l27.123001,-30.513c2.950012,-3.321014 8.040009,-3.624023 11.363007,-0.667999c3.326004,2.957977 3.623993,8.044983 0.669998,11.368988z"/>
  </g>
  <g id="svg_3"/>
  <g id="svg_4"/>
  <g id="svg_5"/>
  <g id="svg_6"/>
  <g id="svg_7"/>
  <g id="svg_8"/>
  <g id="svg_9"/>
  <g id="svg_10"/>
  <g id="svg_11"/>
  <g id="svg_12"/>
  <g id="svg_13"/>
  <g id="svg_14"/>
  <g id="svg_15"/>
  <g id="svg_16"/>
  <g id="svg_17"/>
 </g>
</svg>