<svg xmlns="http://www.w3.org/2000/svg"
width="824px" height="161px" viewBox="0 0 824 161" enable-background="new 0 0 824 161"
	 xml:space="preserve">

 <g>
  <title>background</title>
  <rect fill="none" id="canvas_background" height="163" width="826" y="-1" x="-1"/>
 </g>
 <g>
  <title>Layer 1</title>
  <g id="svg_1">
   <g id="svg_2">
    <path d="m88.585999,4.477l0,10.145c0.364998,0 0.711998,-0.082 1.084,0l66.139999,13.226c3.009003,0.597 4.957001,3.528 4.360001,6.533001c-0.529999,2.642998 -2.849991,4.463001 -5.442993,4.463001c-0.354004,0 -0.725006,-0.042004 -1.097,-0.113003l-65.044006,-13.005999l0,6.140999c0.292,0 0.584,-0.073 0.889,-0.024l66.140999,10.774002c3.026001,0.493999 5.084,3.342999 4.585007,6.365997c-0.444,2.726002 -2.794998,4.665001 -5.473999,4.665001c-0.292999,0 -0.597,-0.023998 -0.901001,-0.072998l-65.252007,-10.632l0,4.896c0.269005,-0.009003 0.536003,-0.088001 0.804001,-0.052002l66.135002,9.621002c3.026001,0.435997 5.132996,3.260998 4.701004,6.292999c-0.408005,2.761997 -2.771011,4.749996 -5.493011,4.749996c-0.261993,0 -0.522995,-0.017998 -0.803986,-0.055l-65.34301,-9.501995l0,5.592999c0.220001,-0.005997 0.427002,-0.087997 0.652,-0.064003l66.145996,7.770004c3.050003,0.362 5.223999,3.117996 4.871002,6.166c-0.334991,2.819 -2.728989,4.902 -5.516998,4.902c-0.214005,0 -0.427002,-0.019005 -0.645996,-0.036003l-65.508003,-7.687996l0,76.969994l74.014,0l0,-133.226986l-74,-14.802001l0,-0.00001zm61.658997,96.214002c-2.539001,0 -4.621002,-2.076004 -4.621002,-4.621002c0,-2.557999 2.082001,-4.627998 4.621002,-4.627998c2.557999,0 4.627991,2.07 4.627991,4.627998c0.000015,2.544998 -2.070984,4.621002 -4.627991,4.621002z" fill="#FFFFFF" id="svg_3"/>
    <path d="m25.673,82.790001c1.348999,-0.067001 2.699999,-0.115997 4.039999,-0.115997c17.455,0 36.233,5.948997 36.233,19.003998l0,45.948997c0,1.759995 -0.364998,3.367004 -0.988998,4.865005l19.92701,0l0,-148.015004l-59.21101,29.605l0,48.708z" fill="#FFFFFF" id="svg_4"/>
    <path d="m29.712999,130.388c-15.855999,0 -28.712999,-5.133003 -28.712999,-11.484001l0,11.484001c0,6.352005 12.857,11.483994 28.712999,11.483994c15.856001,0 28.712999,-5.139999 28.712999,-11.483994l0,-11.484001c0.000999,6.350998 -12.856998,11.484001 -28.712999,11.484001z" fill="#FFFFFF" id="svg_5"/>
    <path d="m29.712999,147.626007c-15.855999,0 -28.712999,-5.145004 -28.712999,-11.490005l0,11.490005c0,6.344986 12.857,11.483994 28.712999,11.483994c15.856001,0 28.712999,-5.139999 28.712999,-11.483994l0,-11.490005c0.000999,6.345001 -12.856998,11.490005 -28.712999,11.490005z" fill="#FFFFFF" id="svg_6"/>
    <path d="m29.712999,90.194c-15.855999,0 -28.712999,5.133003 -28.712999,11.483002l0,11.484001c0,6.351997 12.857,11.489998 28.712999,11.489998c15.856001,0 28.712999,-5.139 28.712999,-11.489998l0,-11.484001c0.000999,-6.349998 -12.856998,-11.483002 -28.712999,-11.483002zm0,20.099998c-15.78,0 -25.845999,-5.103996 -25.845999,-8.616997c0,-3.513 10.065,-8.609001 25.845999,-8.609001c15.777002,0 25.838999,5.097 25.838999,8.609001c0.001003,3.514 -10.061996,8.616997 -25.838999,8.616997z" fill="#FFFFFF" id="svg_7"/>
   </g>
  </g>
  <g id="svg_8"/>
  <g id="svg_9"/>
  <g id="svg_10"/>
  <g id="svg_11"/>
  <g id="svg_12"/>
  <g id="svg_13"/>
  <g id="svg_14"/>
  <g id="svg_15"/>
  <g id="svg_16"/>
  <g id="svg_17"/>
  <g id="svg_18"/>
  <g id="svg_19"/>
  <g id="svg_20"/>
  <g id="svg_21"/>
  <g id="svg_22"/>
  <text font-weight="normal" xml:space="preserve" text-anchor="start" font-family="Calibri" font-size="128" id="svg_23" y="125.450012" x="204" stroke-width="0" stroke="#000" fill="#ffffff">ARCOITR</text>
 </g>
</svg>