<?xml version="1.0" encoding="utf-8"?>
<!-- Generator: Adobe Illustrator 16.0.0, SVG Export Plug-In . SVG Version: 6.00 Build 0)  -->
<!DOCTYPE svg PUBLIC "-//W3C//DTD SVG 1.1//EN" "http://www.w3.org/Graphics/SVG/1.1/DTD/svg11.dtd">
<svg version="1.1" id="Capa_1" xmlns="http://www.w3.org/2000/svg" xmlns:xlink="http://www.w3.org/1999/xlink" x="0px" y="0px"
	 width="800px" height="731.971px" viewBox="280 34.015 800 731.971" enable-background="new 280 34.015 800 731.971"
	 xml:space="preserve">
<g>
	<path fill="#FFFFFF" d="M286.322,177.524h49.805c3.591,0,6.441-2.909,6.441-6.589c0.119-39.921,31.699-72.481,70.553-72.541
		c3.591,0,6.44-2.909,6.44-6.589v-51.17c-0.029-3.651-2.879-6.619-6.471-6.619C339.719,34.015,280,95.485,280,170.935
		C280,174.615,282.79,177.524,286.322,177.524z"/>
	<path fill="#FFFFFF" d="M286.322,321.537h49.805c3.591,0,6.441-2.908,6.441-6.56V210.203c0-3.592-2.85-6.589-6.441-6.589h-49.805
		c-3.532,0-6.322,2.968-6.322,6.589v104.774C280,318.629,282.79,321.537,286.322,321.537z"/>
	<path fill="#FFFFFF" d="M286.322,458.22h49.805c3.591,0,6.441-2.879,6.441-6.56V346.915c0-3.592-2.85-6.619-6.441-6.619h-49.805
		c-3.532,0-6.322,3.027-6.322,6.619V451.66C280,455.341,282.79,458.22,286.322,458.22z"/>
	<path fill="#FFFFFF" d="M286.322,597.781h49.805c3.591,0,6.441-2.85,6.441-6.56V486.565c0-3.532-2.85-6.56-6.441-6.56h-49.805
		c-3.532,0-6.322,3.027-6.322,6.56v104.656C280,594.932,282.79,597.781,286.322,597.781z"/>
	<path fill="#FFFFFF" d="M986.949,321.537c3.532,0,6.322-2.908,6.322-6.56v-14.247l-22.499,20.777h16.177V321.537z"/>
	<path fill="#FFFFFF" d="M986.949,340.296h-27.01l-29.207,30.424v80.94c0,3.681,2.909,6.56,6.382,6.56h49.864
		c3.532,0,6.322-2.879,6.322-6.56V346.915C993.271,343.323,990.511,340.296,986.949,340.296z"/>
	<path fill="#FFFFFF" d="M986.89,480.006h-49.687c-3.592,0-6.44,3.027-6.44,6.56v104.656c0,3.71,2.849,6.56,6.44,6.56h49.687
		c3.532,0,6.382-2.85,6.382-6.56V486.565C993.271,483.033,990.451,480.006,986.89,480.006z"/>
	<path fill="#FFFFFF" d="M820.526,701.606H718.66c-3.473,0-6.441,2.968-6.441,6.56v51.2c0,3.71,2.969,6.619,6.441,6.619h101.866
		c3.591,0,6.44-2.909,6.44-6.619v-51.2C826.967,704.574,824.117,701.606,820.526,701.606z"/>
	<path fill="#FFFFFF" d="M687.494,701.606H585.628c-3.473,0-6.381,2.968-6.381,6.56v51.2c0,3.71,2.908,6.619,6.381,6.619h101.866
		c3.592,0,6.441-2.909,6.441-6.619v-51.2C693.905,704.574,691.086,701.606,687.494,701.606z"/>
	<path fill="#FFFFFF" d="M551.703,701.606H449.866c-3.473,0-6.382,2.968-6.382,6.56v51.2c0,3.71,2.909,6.619,6.382,6.619h101.866
		c3.65,0,6.44-2.909,6.44-6.619v-51.2C558.144,704.574,555.354,701.606,551.703,701.606z"/>
	<path fill="#FFFFFF" d="M718.66,98.394h101.866c3.591,0,6.44-2.909,6.44-6.589v-51.17c0-3.651-2.85-6.619-6.44-6.619H718.66
		c-3.473,0-6.441,2.968-6.441,6.619v51.2C712.219,95.485,715.188,98.394,718.66,98.394z"/>
	<path fill="#FFFFFF" d="M585.628,98.394h101.866c3.592,0,6.441-2.909,6.441-6.589v-51.17c-0.03-3.651-2.85-6.619-6.441-6.619
		H585.628c-3.473,0-6.381,2.968-6.381,6.619v51.2C579.247,95.485,582.155,98.394,585.628,98.394z"/>
	<path fill="#FFFFFF" d="M449.866,98.394h101.866c3.65,0,6.44-2.909,6.44-6.589v-51.17c-0.029-3.651-2.819-6.619-6.47-6.619H449.866
		c-3.503,0-6.382,2.968-6.382,6.619v51.2C443.484,95.485,446.363,98.394,449.866,98.394z"/>
	<path fill="#FFFFFF" d="M413.091,700.004c-38.853-0.179-70.434-32.59-70.552-72.512c0-3.592-2.85-6.5-6.441-6.5h-49.775
		c-3.532-0.029-6.322,2.879-6.322,6.471c0,75.539,59.719,136.86,133.091,136.86c3.592,0,6.441-2.909,6.441-6.619v-51.111
		C419.532,703.002,416.683,700.004,413.091,700.004z"/>
	<path fill="#FFFFFF" d="M985.465,620.963h-49.687c-3.591,0-6.44,2.908-6.44,6.5c-0.119,39.951-31.759,72.362-70.612,72.511
		c-3.473,0-6.381,3.028-6.381,6.619v51.141c0,3.711,2.908,6.619,6.381,6.619c73.462,0,133.091-61.321,133.091-136.86
		C991.816,623.871,989.057,620.963,985.465,620.963z"/>
	<path fill="#FFFFFF" d="M858.726,98.394c38.557,0.06,44.048,5.58,63.934,42.444l47.372-44.522
		c-16.682-48.114-56.188-62.301-111.306-62.301c-3.473,0-6.381,2.968-6.381,6.619v51.2
		C852.345,95.485,855.253,98.394,858.726,98.394z"/>
	<path fill="#FFFFFF" d="M1072.521,164.078l-54.376-54.376c-9.974-9.973-26.209-9.973-36.182,0l-325.9,325.931L501.037,279.509
		c-10.092-10.002-26.269-10.002-36.301,0l-54.287,54.287c-10.032,10.003-10.032,26.268,0,36.241l172.419,173.694l0.594,0.802
		l37.517,37.576l8.756,8.756l0,0l8.044,8.015c9.973,9.973,26.209,9.973,36.241,0l398.501-398.561
		C1082.493,190.346,1082.493,174.021,1072.521,164.078z"/>
</g>
</svg>
