<?xml version="1.0" encoding="utf-8"?>
<!-- Generator: Adobe Illustrator 16.0.0, SVG Export Plug-In . SVG Version: 6.00 Build 0)  -->
<!DOCTYPE svg PUBLIC "-//W3C//DTD SVG 1.1//EN" "http://www.w3.org/Graphics/SVG/1.1/DTD/svg11.dtd">
<svg version="1.1" id="Layer_1" xmlns="http://www.w3.org/2000/svg" xmlns:xlink="http://www.w3.org/1999/xlink" x="0px" y="0px"
	 width="267.922px" height="267.926px" viewBox="0 0 267.922 267.926" enable-background="new 0 0 267.922 267.926"
	 xml:space="preserve">
<path fill="#FFFFFF" d="M162.547,106.499c0,0-46.087,14.121-54.926,22.963c-8.827,8.804-8.827,23.108,0,31.959
	c8.839,8.819,23.144,8.819,31.963,0C148.404,152.57,162.547,106.499,162.547,106.499z"/>
<path fill="#FFFFFF" d="M223.935,57.516l23.688,23.694l20.301-20.324c0,0-13.469-33.598-60.91-60.887L186.706,20.3l23.693,23.679
	l0,0v0.015l-5.133,5.141c-21.756-18.662-49.967-29.985-80.88-29.985C55.681,19.15,0,74.823,0,143.544
	c0,68.697,55.681,124.382,124.386,124.382s124.391-55.685,124.391-124.382c0-30.929-11.344-59.136-29.981-80.88L223.935,57.516z
	 M218.217,145.637c-0.016,0.1-0.022,0.2-0.022,0.331h1.785c-0.985,22.103-9.573,42.802-24.487,59.132l-1.115-1.115
	c-0.23,0.263-0.438,0.539-0.67,0.793l-16.977-16.961l-5.316,5.324l18.022,18.023c-16.36,14.914-37.031,23.502-59.164,24.494v-0.469
	c-0.596,0.045-1.162,0.115-1.773,0.146v-25.149h-6.783v25.473c-3.383-0.161-6.688-0.538-9.981-1.038
	c-19.008-2.486-36.642-10.688-50.96-23.765l18.047-18.037l-5.018-5.004l-17.304,17.301c-0.327-0.385-0.597-0.777-0.958-1.131
	l-0.809,0.822C39.375,188,31.209,166.984,30.248,145.645h25.479v-8.246H32.029c0-0.096,0.016-0.215,0.016-0.312h-1.797
	c0.962-21.343,9.127-42.355,24.502-59.163l1.097,1.12c0.247-0.262,0.438-0.539,0.677-0.808l16.973,17.011l5.338-5.344L60.802,71.872
	c16.334-14.929,37.063-23.498,59.155-24.479v0.469c0.573-0.05,1.177-0.127,1.767-0.158v25.148h6.783v-25.46
	c3.363,0.142,6.695,0.542,9.98,1.042c19.02,2.497,36.635,10.705,50.934,23.764l-18.008,18.003l5.019,5.037l17.276-17.308
	c0.338,0.374,0.615,0.777,0.938,1.154l0.848-0.835c14.905,16.342,23.486,37.031,24.471,59.155h-25.486v8.246h23.74V145.637
	L218.217,145.637z"/>
</svg>
