<?xml version="1.0" encoding="utf-8"?>
<!-- Generator: Adobe Illustrator 16.0.0, SVG Export Plug-In . SVG Version: 6.00 Build 0)  -->
<!DOCTYPE svg PUBLIC "-//W3C//DTD SVG 1.1//EN" "http://www.w3.org/Graphics/SVG/1.1/DTD/svg11.dtd">
<svg version="1.1" id="Capa_1" xmlns="http://www.w3.org/2000/svg" xmlns:xlink="http://www.w3.org/1999/xlink" x="0px" y="0px"
	 width="487.248px" height="442.811px" viewBox="0 54.607 487.248 442.811" enable-background="new 0 54.607 487.248 442.811"
	 xml:space="preserve">
<g>
	<g>
		<path fill="#5A6A73" d="M487.189,55.24c-1.208-0.777-2.738-0.842-4.007-0.173c-19.356,10.231-39.753,15.42-60.626,15.42
			c-35.397,0-60.306-15.132-60.549-15.283c-1.28-0.794-2.906-0.794-4.188-0.002c-0.247,0.153-25.154,15.281-60.554,15.285
			c-0.003,0-0.005,0-0.007,0c-6.789,0-13.524-0.56-20.194-1.653c0.725,0.683,1.465,1.35,2.164,2.057
			c18.837,19.028,28.209,46.831,27.849,82.644c-0.368,33.869-6.615,63.936-18.233,88.446c19.198,30.254,42.386,54.196,68.926,71.161
			c0.653,0.419,1.397,0.627,2.141,0.627c0.744,0,1.488-0.208,2.142-0.627c26.588-16.995,49.811-40.993,69.029-71.322
			c15.306-24.16,28.119-52.373,38.079-83.856c16.935-53.511,19.814-98.69,19.839-99.142
			C489.091,57.384,488.396,56.016,487.189,55.24z M446.437,150.77c-9.342,29.524-21.284,55.863-35.488,78.289
			c-9.377,14.793-19.838,27.98-31.177,39.305V88.166c14.012,4.086,28.38,6.153,42.782,6.153c13.031,0,25.994-1.711,38.62-5.09
			C458.525,105.011,453.971,126.954,446.437,150.77z"/>
		<path fill="#5A6A73" d="M308.126,339.79l-54.331-25.015l-26.102-22.012l-41.626,41.407l18.589,124.281
			c0.065,0.434-0.043,0.877-0.301,1.228l-19.694,26.955c-0.314,0.431-0.813,0.684-1.345,0.684c-0.533,0-1.034-0.256-1.346-0.684
			l-19.695-26.955c-0.257-0.351-0.367-0.796-0.301-1.228l18.588-124.286l-41.628-41.402l-26.101,22.013l-54.33,25.016
			c-8.041,3.299-16.681,9.139-19.957,17.024c0,0-59.056,140.602-27.025,140.602h343.586c32.032,0-27.023-140.602-27.023-140.602
			C324.584,348.448,316.165,343.089,308.126,339.79z"/>
		<path fill="#5A6A73" d="M183.313,291.971c55.567,0,97.033-51.773,97.976-138.594c0.604-60.246-28.088-96.302-97.976-96.302
			c-69.889,0-98.587,36.056-97.977,96.302C86.281,240.198,127.745,291.971,183.313,291.971z"/>
	</g>
</g>
</svg>
