<?xml version="1.0" encoding="utf-8"?>
<!-- Generator: Adobe Illustrator 16.0.0, SVG Export Plug-In . SVG Version: 6.00 Build 0)  -->
<!DOCTYPE svg PUBLIC "-//W3C//DTD SVG 1.1//EN" "http://www.w3.org/Graphics/SVG/1.1/DTD/svg11.dtd">
<svg version="1.1" id="Capa_1" xmlns="http://www.w3.org/2000/svg" xmlns:xlink="http://www.w3.org/1999/xlink" x="0px" y="0px"
	 width="487.248px" height="595.277px" viewBox="0 0 487.248 595.277" enable-background="new 0 0 487.248 595.277"
	 xml:space="preserve">
<g>
	<g>
		<path fill="#6d7993" d="M128.307,186.74c2.065,9.509,5.235,15.665,8.936,19.501c8.798,61.237,63.765,113.424,107.911,111.241
			c56.16-2.756,95.967-63.28,104.902-111.241c3.697-3.813,7.258-11.967,9.395-21.545c2.39-11.002,4.961-27.586-1.653-36.361
			c-0.392-0.459-2.916-2.779-3.354-3.17c6.316-22.786,20.189-63.442-14.354-99.986c-18.722-19.8-44.722-29.746-68.22-37.602
			C202.5-15.599,153.528,16.903,130.927,70.95c-1.633,3.836-12.176,28.115,0.597,74.215c-1.24,0.827-2.365,1.884-3.309,3.17
			C121.578,157.086,125.896,175.737,128.307,186.74z"/>
		<path fill="#6d7993" d="M487.07,523.521c-1.93-42.149-4.317-108.944-41.139-163.59c0,0-10.498-14.312-35.396-23.82
			c0,0-54.069-16.469-78.969-34.271l-11.369,7.786l1.263,73.916l-68.267,182.24c-1.492,3.997-5.305,6.64-9.554,6.64
			c-4.25,0-8.063-2.643-9.558-6.64l-68.242-182.24c0,0,1.265-73.688,1.24-73.916c0.16,0.62-11.394-7.786-11.394-7.786
			c-24.854,17.802-78.946,34.271-78.946,34.271c-24.898,9.511-35.396,23.82-35.396,23.82C4.547,414.576,2.113,481.37,0.183,523.521
			c-1.332,29.125,4.775,39.989,12.448,43.091c95.231,38.222,366.709,38.222,461.965,0
			C482.316,563.533,488.379,552.646,487.07,523.521z"/>
		<path fill="#6d7993" d="M246.073,341.027l-3.079,0.068c-9.923,0-19.938-1.931-29.769-5.33l27.059,41.416l-24.279,23.429
			l24.991,151.76c0.207,1.311,1.332,2.251,2.664,2.251c1.312,0,2.437-0.94,2.665-2.251l24.99-151.76l-24.301-23.429l26.666-40.796
			C264.976,338.938,255.765,340.637,246.073,341.027z"/>
	</g>
</g>
</svg>
